<mxfile host="app.diagrams.net" modified="2024-05-10T17:34:15.521Z" agent="Mozilla/5.0 (Macintosh; Intel Mac OS X 10_15_7) AppleWebKit/605.1.15 (KHTML, like Gecko) Version/17.4.1 Safari/605.1.15" etag="ZtcJ_-MD2coFjBOaTHP7" version="24.3.1" type="device">
  <diagram name="Page-1" id="fozd880B7IRvszIvP1ci">
    <mxGraphModel dx="2094" dy="2198" grid="1" gridSize="10" guides="1" tooltips="1" connect="1" arrows="1" fold="1" page="1" pageScale="1" pageWidth="827" pageHeight="1169" math="0" shadow="0">
      <root>
        <mxCell id="0" />
        <mxCell id="1" parent="0" />
        <mxCell id="mPwbwdcTfQN4pYjI0akt-592" value="" style="group" vertex="1" connectable="0" parent="1">
          <mxGeometry x="-750" y="-990" width="80" height="202.75" as="geometry" />
        </mxCell>
        <mxCell id="mPwbwdcTfQN4pYjI0akt-593" value="" style="shape=cube;whiteSpace=wrap;html=1;boundedLbl=1;backgroundOutline=1;darkOpacity=0.05;darkOpacity2=0.1;size=40;direction=east;flipH=1;fillColor=#D5E8D4;strokeColor=#C2C2C2;fillStyle=solid;" vertex="1" parent="mPwbwdcTfQN4pYjI0akt-592">
          <mxGeometry x="70" y="40" width="10" height="23.75" as="geometry" />
        </mxCell>
        <mxCell id="mPwbwdcTfQN4pYjI0akt-594" value="" style="shape=cube;whiteSpace=wrap;html=1;boundedLbl=1;backgroundOutline=1;darkOpacity=0.05;darkOpacity2=0.1;size=40;direction=east;flipH=1;fillColor=#D5E8D4;strokeColor=#C2C2C2;fillStyle=solid;" vertex="1" parent="mPwbwdcTfQN4pYjI0akt-592">
          <mxGeometry x="70" y="27" width="10" height="23.75" as="geometry" />
        </mxCell>
        <mxCell id="mPwbwdcTfQN4pYjI0akt-595" value="" style="shape=cube;whiteSpace=wrap;html=1;boundedLbl=1;backgroundOutline=1;darkOpacity=0.05;darkOpacity2=0.1;size=40;direction=east;flipH=1;fillColor=#D5E8D4;strokeColor=#C2C2C2;fillStyle=solid;" vertex="1" parent="mPwbwdcTfQN4pYjI0akt-592">
          <mxGeometry x="70" y="13.25" width="10" height="23.75" as="geometry" />
        </mxCell>
        <mxCell id="mPwbwdcTfQN4pYjI0akt-596" value="" style="shape=cube;whiteSpace=wrap;html=1;boundedLbl=1;backgroundOutline=1;darkOpacity=0.05;darkOpacity2=0.1;size=40;direction=east;flipH=1;fillColor=#D5E8D4;strokeColor=#C2C2C2;fillStyle=solid;" vertex="1" parent="mPwbwdcTfQN4pYjI0akt-592">
          <mxGeometry x="70" y="54" width="10" height="23.75" as="geometry" />
        </mxCell>
        <mxCell id="mPwbwdcTfQN4pYjI0akt-597" value="" style="shape=cube;whiteSpace=wrap;html=1;boundedLbl=1;backgroundOutline=1;darkOpacity=0.05;darkOpacity2=0.1;size=40;direction=east;flipH=1;fillColor=#D5E8D4;strokeColor=#C2C2C2;fillStyle=solid;" vertex="1" parent="mPwbwdcTfQN4pYjI0akt-592">
          <mxGeometry x="70" y="67.75" width="10" height="23.75" as="geometry" />
        </mxCell>
        <mxCell id="mPwbwdcTfQN4pYjI0akt-598" value="" style="shape=cube;whiteSpace=wrap;html=1;boundedLbl=1;backgroundOutline=1;darkOpacity=0.05;darkOpacity2=0.1;size=40;direction=east;flipH=1;fillColor=#D5E8D4;strokeColor=#C2C2C2;fillStyle=solid;" vertex="1" parent="mPwbwdcTfQN4pYjI0akt-592">
          <mxGeometry x="70" y="81.5" width="10" height="23.75" as="geometry" />
        </mxCell>
        <mxCell id="mPwbwdcTfQN4pYjI0akt-599" value="" style="shape=cube;whiteSpace=wrap;html=1;boundedLbl=1;backgroundOutline=1;darkOpacity=0.05;darkOpacity2=0.1;size=40;direction=east;flipH=1;fillColor=#D5E8D4;strokeColor=#C2C2C2;fillStyle=solid;" vertex="1" parent="mPwbwdcTfQN4pYjI0akt-592">
          <mxGeometry x="70" y="95.25" width="10" height="23.75" as="geometry" />
        </mxCell>
        <mxCell id="mPwbwdcTfQN4pYjI0akt-600" value="" style="shape=cube;whiteSpace=wrap;html=1;boundedLbl=1;backgroundOutline=1;darkOpacity=0.05;darkOpacity2=0.1;size=40;direction=east;flipH=1;fillColor=#D5E8D4;strokeColor=#C2C2C2;fillStyle=solid;" vertex="1" parent="mPwbwdcTfQN4pYjI0akt-592">
          <mxGeometry x="60" y="50.25" width="10" height="23.75" as="geometry" />
        </mxCell>
        <mxCell id="mPwbwdcTfQN4pYjI0akt-601" value="" style="shape=cube;whiteSpace=wrap;html=1;boundedLbl=1;backgroundOutline=1;darkOpacity=0.05;darkOpacity2=0.1;size=40;direction=east;flipH=1;fillColor=#D5E8D4;strokeColor=#C2C2C2;fillStyle=solid;" vertex="1" parent="mPwbwdcTfQN4pYjI0akt-592">
          <mxGeometry x="60" y="37.25" width="10" height="23.75" as="geometry" />
        </mxCell>
        <mxCell id="mPwbwdcTfQN4pYjI0akt-602" value="" style="shape=cube;whiteSpace=wrap;html=1;boundedLbl=1;backgroundOutline=1;darkOpacity=0.05;darkOpacity2=0.1;size=40;direction=east;flipH=1;fillColor=#D5E8D4;strokeColor=#C2C2C2;fillStyle=solid;" vertex="1" parent="mPwbwdcTfQN4pYjI0akt-592">
          <mxGeometry x="60" y="23.5" width="10" height="23.75" as="geometry" />
        </mxCell>
        <mxCell id="mPwbwdcTfQN4pYjI0akt-603" value="" style="shape=cube;whiteSpace=wrap;html=1;boundedLbl=1;backgroundOutline=1;darkOpacity=0.05;darkOpacity2=0.1;size=40;direction=east;flipH=1;fillColor=#D5E8D4;strokeColor=#C2C2C2;fillStyle=solid;" vertex="1" parent="mPwbwdcTfQN4pYjI0akt-592">
          <mxGeometry x="60" y="64.25" width="10" height="23.75" as="geometry" />
        </mxCell>
        <mxCell id="mPwbwdcTfQN4pYjI0akt-604" value="" style="shape=cube;whiteSpace=wrap;html=1;boundedLbl=1;backgroundOutline=1;darkOpacity=0.05;darkOpacity2=0.1;size=40;direction=east;flipH=1;fillColor=#D5E8D4;strokeColor=#C2C2C2;fillStyle=solid;" vertex="1" parent="mPwbwdcTfQN4pYjI0akt-592">
          <mxGeometry x="60" y="78" width="10" height="23.75" as="geometry" />
        </mxCell>
        <mxCell id="mPwbwdcTfQN4pYjI0akt-605" value="" style="shape=cube;whiteSpace=wrap;html=1;boundedLbl=1;backgroundOutline=1;darkOpacity=0.05;darkOpacity2=0.1;size=40;direction=east;flipH=1;fillColor=#D5E8D4;strokeColor=#C2C2C2;fillStyle=solid;" vertex="1" parent="mPwbwdcTfQN4pYjI0akt-592">
          <mxGeometry x="60" y="91.75" width="10" height="23.75" as="geometry" />
        </mxCell>
        <mxCell id="mPwbwdcTfQN4pYjI0akt-606" value="" style="shape=cube;whiteSpace=wrap;html=1;boundedLbl=1;backgroundOutline=1;darkOpacity=0.05;darkOpacity2=0.1;size=40;direction=east;flipH=1;fillColor=#D5E8D4;strokeColor=#C2C2C2;fillStyle=solid;" vertex="1" parent="mPwbwdcTfQN4pYjI0akt-592">
          <mxGeometry x="60" y="105.5" width="10" height="23.75" as="geometry" />
        </mxCell>
        <mxCell id="mPwbwdcTfQN4pYjI0akt-607" value="" style="shape=cube;whiteSpace=wrap;html=1;boundedLbl=1;backgroundOutline=1;darkOpacity=0.05;darkOpacity2=0.1;size=40;direction=east;flipH=1;fillColor=#D5E8D4;strokeColor=#C2C2C2;fillStyle=solid;" vertex="1" parent="mPwbwdcTfQN4pYjI0akt-592">
          <mxGeometry x="50" y="60" width="10" height="23.75" as="geometry" />
        </mxCell>
        <mxCell id="mPwbwdcTfQN4pYjI0akt-608" value="" style="shape=cube;whiteSpace=wrap;html=1;boundedLbl=1;backgroundOutline=1;darkOpacity=0.05;darkOpacity2=0.1;size=40;direction=east;flipH=1;fillColor=#D5E8D4;strokeColor=#C2C2C2;fillStyle=solid;" vertex="1" parent="mPwbwdcTfQN4pYjI0akt-592">
          <mxGeometry x="50" y="47" width="10" height="23.75" as="geometry" />
        </mxCell>
        <mxCell id="mPwbwdcTfQN4pYjI0akt-609" value="" style="shape=cube;whiteSpace=wrap;html=1;boundedLbl=1;backgroundOutline=1;darkOpacity=0.05;darkOpacity2=0.1;size=40;direction=east;flipH=1;fillColor=#D5E8D4;strokeColor=#C2C2C2;fillStyle=solid;" vertex="1" parent="mPwbwdcTfQN4pYjI0akt-592">
          <mxGeometry x="50" y="33.25" width="10" height="23.75" as="geometry" />
        </mxCell>
        <mxCell id="mPwbwdcTfQN4pYjI0akt-610" value="" style="shape=cube;whiteSpace=wrap;html=1;boundedLbl=1;backgroundOutline=1;darkOpacity=0.05;darkOpacity2=0.1;size=40;direction=east;flipH=1;fillColor=#D5E8D4;strokeColor=#C2C2C2;fillStyle=solid;" vertex="1" parent="mPwbwdcTfQN4pYjI0akt-592">
          <mxGeometry x="50" y="74" width="10" height="23.75" as="geometry" />
        </mxCell>
        <mxCell id="mPwbwdcTfQN4pYjI0akt-611" value="" style="shape=cube;whiteSpace=wrap;html=1;boundedLbl=1;backgroundOutline=1;darkOpacity=0.05;darkOpacity2=0.1;size=40;direction=east;flipH=1;fillColor=#D5E8D4;strokeColor=#C2C2C2;fillStyle=solid;" vertex="1" parent="mPwbwdcTfQN4pYjI0akt-592">
          <mxGeometry x="50" y="87.75" width="10" height="23.75" as="geometry" />
        </mxCell>
        <mxCell id="mPwbwdcTfQN4pYjI0akt-612" value="" style="shape=cube;whiteSpace=wrap;html=1;boundedLbl=1;backgroundOutline=1;darkOpacity=0.05;darkOpacity2=0.1;size=40;direction=east;flipH=1;fillColor=#D5E8D4;strokeColor=#C2C2C2;fillStyle=solid;" vertex="1" parent="mPwbwdcTfQN4pYjI0akt-592">
          <mxGeometry x="50" y="101.5" width="10" height="23.75" as="geometry" />
        </mxCell>
        <mxCell id="mPwbwdcTfQN4pYjI0akt-613" value="" style="shape=cube;whiteSpace=wrap;html=1;boundedLbl=1;backgroundOutline=1;darkOpacity=0.05;darkOpacity2=0.1;size=40;direction=east;flipH=1;fillColor=#D5E8D4;strokeColor=#C2C2C2;fillStyle=solid;" vertex="1" parent="mPwbwdcTfQN4pYjI0akt-592">
          <mxGeometry x="50" y="115.25" width="10" height="23.75" as="geometry" />
        </mxCell>
        <mxCell id="mPwbwdcTfQN4pYjI0akt-614" value="" style="shape=cube;whiteSpace=wrap;html=1;boundedLbl=1;backgroundOutline=1;darkOpacity=0.05;darkOpacity2=0.1;size=40;direction=east;flipH=1;fillColor=#D5E8D4;strokeColor=#C2C2C2;fillStyle=solid;" vertex="1" parent="mPwbwdcTfQN4pYjI0akt-592">
          <mxGeometry x="40" y="69.25" width="10" height="23.75" as="geometry" />
        </mxCell>
        <mxCell id="mPwbwdcTfQN4pYjI0akt-615" value="" style="shape=cube;whiteSpace=wrap;html=1;boundedLbl=1;backgroundOutline=1;darkOpacity=0.05;darkOpacity2=0.1;size=40;direction=east;flipH=1;fillColor=#D5E8D4;strokeColor=#C2C2C2;fillStyle=solid;" vertex="1" parent="mPwbwdcTfQN4pYjI0akt-592">
          <mxGeometry x="40" y="56.25" width="10" height="23.75" as="geometry" />
        </mxCell>
        <mxCell id="mPwbwdcTfQN4pYjI0akt-616" value="" style="shape=cube;whiteSpace=wrap;html=1;boundedLbl=1;backgroundOutline=1;darkOpacity=0.05;darkOpacity2=0.1;size=40;direction=east;flipH=1;fillColor=#D5E8D4;strokeColor=#C2C2C2;fillStyle=solid;" vertex="1" parent="mPwbwdcTfQN4pYjI0akt-592">
          <mxGeometry x="40" y="42.5" width="10" height="23.75" as="geometry" />
        </mxCell>
        <mxCell id="mPwbwdcTfQN4pYjI0akt-617" value="" style="shape=cube;whiteSpace=wrap;html=1;boundedLbl=1;backgroundOutline=1;darkOpacity=0.05;darkOpacity2=0.1;size=40;direction=east;flipH=1;fillColor=#67AB9F;strokeColor=#C2C2C2;fillStyle=solid;" vertex="1" parent="mPwbwdcTfQN4pYjI0akt-592">
          <mxGeometry x="40" y="83.25" width="10" height="23.75" as="geometry" />
        </mxCell>
        <mxCell id="mPwbwdcTfQN4pYjI0akt-618" value="" style="shape=cube;whiteSpace=wrap;html=1;boundedLbl=1;backgroundOutline=1;darkOpacity=0.05;darkOpacity2=0.1;size=40;direction=east;flipH=1;fillColor=#D5E8D4;strokeColor=#C2C2C2;fillStyle=solid;" vertex="1" parent="mPwbwdcTfQN4pYjI0akt-592">
          <mxGeometry x="40" y="97" width="10" height="23.75" as="geometry" />
        </mxCell>
        <mxCell id="mPwbwdcTfQN4pYjI0akt-619" value="" style="shape=cube;whiteSpace=wrap;html=1;boundedLbl=1;backgroundOutline=1;darkOpacity=0.05;darkOpacity2=0.1;size=40;direction=east;flipH=1;fillColor=#D5E8D4;strokeColor=#C2C2C2;fillStyle=solid;" vertex="1" parent="mPwbwdcTfQN4pYjI0akt-592">
          <mxGeometry x="40" y="110.75" width="10" height="23.75" as="geometry" />
        </mxCell>
        <mxCell id="mPwbwdcTfQN4pYjI0akt-620" value="" style="shape=cube;whiteSpace=wrap;html=1;boundedLbl=1;backgroundOutline=1;darkOpacity=0.05;darkOpacity2=0.1;size=40;direction=east;flipH=1;fillColor=#D5E8D4;strokeColor=#C2C2C2;fillStyle=solid;" vertex="1" parent="mPwbwdcTfQN4pYjI0akt-592">
          <mxGeometry x="40" y="124.5" width="10" height="23.75" as="geometry" />
        </mxCell>
        <mxCell id="mPwbwdcTfQN4pYjI0akt-621" value="" style="shape=cube;whiteSpace=wrap;html=1;boundedLbl=1;backgroundOutline=1;darkOpacity=0.05;darkOpacity2=0.1;size=40;direction=east;flipH=1;fillColor=#97D077;strokeColor=#C2C2C2;fillStyle=solid;" vertex="1" parent="mPwbwdcTfQN4pYjI0akt-592">
          <mxGeometry x="30" y="79.75" width="10" height="23.75" as="geometry" />
        </mxCell>
        <mxCell id="mPwbwdcTfQN4pYjI0akt-622" value="" style="shape=cube;whiteSpace=wrap;html=1;boundedLbl=1;backgroundOutline=1;darkOpacity=0.05;darkOpacity2=0.1;size=40;direction=east;flipH=1;fillColor=#97D077;strokeColor=#C2C2C2;fillStyle=solid;" vertex="1" parent="mPwbwdcTfQN4pYjI0akt-592">
          <mxGeometry x="30" y="66.75" width="10" height="23.75" as="geometry" />
        </mxCell>
        <mxCell id="mPwbwdcTfQN4pYjI0akt-623" value="" style="shape=cube;whiteSpace=wrap;html=1;boundedLbl=1;backgroundOutline=1;darkOpacity=0.05;darkOpacity2=0.1;size=40;direction=east;flipH=1;fillColor=#97D077;strokeColor=#C2C2C2;fillStyle=solid;" vertex="1" parent="mPwbwdcTfQN4pYjI0akt-592">
          <mxGeometry x="30" y="53" width="10" height="23.75" as="geometry" />
        </mxCell>
        <mxCell id="mPwbwdcTfQN4pYjI0akt-624" value="" style="shape=cube;whiteSpace=wrap;html=1;boundedLbl=1;backgroundOutline=1;darkOpacity=0.05;darkOpacity2=0.1;size=40;direction=east;flipH=1;fillColor=#D5E8D4;strokeColor=#C2C2C2;fillStyle=solid;" vertex="1" parent="mPwbwdcTfQN4pYjI0akt-592">
          <mxGeometry x="30" y="93.75" width="10" height="23.75" as="geometry" />
        </mxCell>
        <mxCell id="mPwbwdcTfQN4pYjI0akt-625" value="" style="shape=cube;whiteSpace=wrap;html=1;boundedLbl=1;backgroundOutline=1;darkOpacity=0.05;darkOpacity2=0.1;size=40;direction=east;flipH=1;fillColor=#D5E8D4;strokeColor=#C2C2C2;fillStyle=solid;" vertex="1" parent="mPwbwdcTfQN4pYjI0akt-592">
          <mxGeometry x="30" y="107.5" width="10" height="23.75" as="geometry" />
        </mxCell>
        <mxCell id="mPwbwdcTfQN4pYjI0akt-626" value="" style="shape=cube;whiteSpace=wrap;html=1;boundedLbl=1;backgroundOutline=1;darkOpacity=0.05;darkOpacity2=0.1;size=40;direction=east;flipH=1;fillColor=#D5E8D4;strokeColor=#C2C2C2;fillStyle=solid;" vertex="1" parent="mPwbwdcTfQN4pYjI0akt-592">
          <mxGeometry x="30" y="121.25" width="10" height="23.75" as="geometry" />
        </mxCell>
        <mxCell id="mPwbwdcTfQN4pYjI0akt-627" value="" style="shape=cube;whiteSpace=wrap;html=1;boundedLbl=1;backgroundOutline=1;darkOpacity=0.05;darkOpacity2=0.1;size=40;direction=east;flipH=1;fillColor=#D5E8D4;strokeColor=#C2C2C2;fillStyle=solid;" vertex="1" parent="mPwbwdcTfQN4pYjI0akt-592">
          <mxGeometry x="30" y="135" width="10" height="23.75" as="geometry" />
        </mxCell>
        <mxCell id="mPwbwdcTfQN4pYjI0akt-628" value="" style="shape=cube;whiteSpace=wrap;html=1;boundedLbl=1;backgroundOutline=1;darkOpacity=0.05;darkOpacity2=0.1;size=40;direction=east;flipH=1;fillColor=#97D077;strokeColor=#C2C2C2;fillStyle=solid;" vertex="1" parent="mPwbwdcTfQN4pYjI0akt-592">
          <mxGeometry x="20" y="90" width="10" height="23.75" as="geometry" />
        </mxCell>
        <mxCell id="mPwbwdcTfQN4pYjI0akt-629" value="" style="shape=cube;whiteSpace=wrap;html=1;boundedLbl=1;backgroundOutline=1;darkOpacity=0.05;darkOpacity2=0.1;size=40;direction=east;flipH=1;fillColor=#97D077;strokeColor=#C2C2C2;fillStyle=solid;" vertex="1" parent="mPwbwdcTfQN4pYjI0akt-592">
          <mxGeometry x="20" y="77" width="10" height="23.75" as="geometry" />
        </mxCell>
        <mxCell id="mPwbwdcTfQN4pYjI0akt-630" value="" style="shape=cube;whiteSpace=wrap;html=1;boundedLbl=1;backgroundOutline=1;darkOpacity=0.05;darkOpacity2=0.1;size=40;direction=east;flipH=1;fillColor=#97D077;strokeColor=#C2C2C2;fillStyle=solid;" vertex="1" parent="mPwbwdcTfQN4pYjI0akt-592">
          <mxGeometry x="20" y="63.25" width="10" height="23.75" as="geometry" />
        </mxCell>
        <mxCell id="mPwbwdcTfQN4pYjI0akt-631" value="" style="shape=cube;whiteSpace=wrap;html=1;boundedLbl=1;backgroundOutline=1;darkOpacity=0.05;darkOpacity2=0.1;size=40;direction=east;flipH=1;fillColor=#D5E8D4;strokeColor=#C2C2C2;fillStyle=solid;" vertex="1" parent="mPwbwdcTfQN4pYjI0akt-592">
          <mxGeometry x="20" y="104" width="10" height="23.75" as="geometry" />
        </mxCell>
        <mxCell id="mPwbwdcTfQN4pYjI0akt-632" value="" style="shape=cube;whiteSpace=wrap;html=1;boundedLbl=1;backgroundOutline=1;darkOpacity=0.05;darkOpacity2=0.1;size=40;direction=east;flipH=1;fillColor=#D5E8D4;strokeColor=#C2C2C2;fillStyle=solid;" vertex="1" parent="mPwbwdcTfQN4pYjI0akt-592">
          <mxGeometry x="20" y="117.75" width="10" height="23.75" as="geometry" />
        </mxCell>
        <mxCell id="mPwbwdcTfQN4pYjI0akt-633" value="" style="shape=cube;whiteSpace=wrap;html=1;boundedLbl=1;backgroundOutline=1;darkOpacity=0.05;darkOpacity2=0.1;size=40;direction=east;flipH=1;fillColor=#D5E8D4;strokeColor=#C2C2C2;fillStyle=solid;" vertex="1" parent="mPwbwdcTfQN4pYjI0akt-592">
          <mxGeometry x="20" y="131.5" width="10" height="23.75" as="geometry" />
        </mxCell>
        <mxCell id="mPwbwdcTfQN4pYjI0akt-634" value="" style="shape=cube;whiteSpace=wrap;html=1;boundedLbl=1;backgroundOutline=1;darkOpacity=0.05;darkOpacity2=0.1;size=40;direction=east;flipH=1;fillColor=#D5E8D4;strokeColor=#C2C2C2;fillStyle=solid;" vertex="1" parent="mPwbwdcTfQN4pYjI0akt-592">
          <mxGeometry x="20" y="145.25" width="10" height="23.75" as="geometry" />
        </mxCell>
        <mxCell id="mPwbwdcTfQN4pYjI0akt-635" value="" style="shape=cube;whiteSpace=wrap;html=1;boundedLbl=1;backgroundOutline=1;darkOpacity=0.05;darkOpacity2=0.1;size=40;direction=east;flipH=1;fillColor=#97D077;strokeColor=#C2C2C2;fillStyle=solid;" vertex="1" parent="mPwbwdcTfQN4pYjI0akt-592">
          <mxGeometry x="10" y="99.75" width="10" height="23.75" as="geometry" />
        </mxCell>
        <mxCell id="mPwbwdcTfQN4pYjI0akt-636" value="" style="shape=cube;whiteSpace=wrap;html=1;boundedLbl=1;backgroundOutline=1;darkOpacity=0.05;darkOpacity2=0.1;size=40;direction=east;flipH=1;fillColor=#97D077;strokeColor=#C2C2C2;fillStyle=solid;" vertex="1" parent="mPwbwdcTfQN4pYjI0akt-592">
          <mxGeometry x="10" y="86.75" width="10" height="23.75" as="geometry" />
        </mxCell>
        <mxCell id="mPwbwdcTfQN4pYjI0akt-637" value="" style="shape=cube;whiteSpace=wrap;html=1;boundedLbl=1;backgroundOutline=1;darkOpacity=0.05;darkOpacity2=0.1;size=40;direction=east;flipH=1;fillColor=#97D077;strokeColor=#C2C2C2;fillStyle=solid;" vertex="1" parent="mPwbwdcTfQN4pYjI0akt-592">
          <mxGeometry x="10" y="73" width="10" height="23.75" as="geometry" />
        </mxCell>
        <mxCell id="mPwbwdcTfQN4pYjI0akt-638" value="" style="shape=cube;whiteSpace=wrap;html=1;boundedLbl=1;backgroundOutline=1;darkOpacity=0.05;darkOpacity2=0.1;size=40;direction=east;flipH=1;fillColor=#D5E8D4;strokeColor=#C2C2C2;fillStyle=solid;" vertex="1" parent="mPwbwdcTfQN4pYjI0akt-592">
          <mxGeometry x="10" y="113.75" width="10" height="23.75" as="geometry" />
        </mxCell>
        <mxCell id="mPwbwdcTfQN4pYjI0akt-639" value="" style="shape=cube;whiteSpace=wrap;html=1;boundedLbl=1;backgroundOutline=1;darkOpacity=0.05;darkOpacity2=0.1;size=40;direction=east;flipH=1;fillColor=#D5E8D4;strokeColor=#C2C2C2;fillStyle=solid;" vertex="1" parent="mPwbwdcTfQN4pYjI0akt-592">
          <mxGeometry x="10" y="127.5" width="10" height="23.75" as="geometry" />
        </mxCell>
        <mxCell id="mPwbwdcTfQN4pYjI0akt-640" value="" style="shape=cube;whiteSpace=wrap;html=1;boundedLbl=1;backgroundOutline=1;darkOpacity=0.05;darkOpacity2=0.1;size=40;direction=east;flipH=1;fillColor=#D5E8D4;strokeColor=#C2C2C2;fillStyle=solid;" vertex="1" parent="mPwbwdcTfQN4pYjI0akt-592">
          <mxGeometry x="10" y="141.25" width="10" height="23.75" as="geometry" />
        </mxCell>
        <mxCell id="mPwbwdcTfQN4pYjI0akt-641" value="" style="shape=cube;whiteSpace=wrap;html=1;boundedLbl=1;backgroundOutline=1;darkOpacity=0.05;darkOpacity2=0.1;size=40;direction=east;flipH=1;fillColor=#D5E8D4;strokeColor=#C2C2C2;fillStyle=solid;" vertex="1" parent="mPwbwdcTfQN4pYjI0akt-592">
          <mxGeometry x="10" y="155" width="10" height="23.75" as="geometry" />
        </mxCell>
        <mxCell id="mPwbwdcTfQN4pYjI0akt-642" value="" style="endArrow=none;html=1;rounded=0;exitX=0;exitY=0;exitDx=10;exitDy=10;exitPerimeter=0;entryX=0;entryY=0;entryDx=10;entryDy=10;entryPerimeter=0;strokeColor=#808080;dashed=1;" edge="1" parent="mPwbwdcTfQN4pYjI0akt-592" source="mPwbwdcTfQN4pYjI0akt-616" target="mPwbwdcTfQN4pYjI0akt-637">
          <mxGeometry width="50" height="50" relative="1" as="geometry">
            <mxPoint x="50" y="63" as="sourcePoint" />
            <mxPoint x="130" y="87" as="targetPoint" />
          </mxGeometry>
        </mxCell>
        <mxCell id="mPwbwdcTfQN4pYjI0akt-643" value="" style="endArrow=none;html=1;rounded=0;exitX=0;exitY=0;exitDx=10;exitDy=10;exitPerimeter=0;entryX=0;entryY=0;entryDx=0;entryDy=0;entryPerimeter=0;strokeColor=#808080;dashed=1;" edge="1" parent="mPwbwdcTfQN4pYjI0akt-592" source="mPwbwdcTfQN4pYjI0akt-616" target="mPwbwdcTfQN4pYjI0akt-624">
          <mxGeometry width="50" height="50" relative="1" as="geometry">
            <mxPoint x="60" y="73" as="sourcePoint" />
            <mxPoint x="140" y="97" as="targetPoint" />
          </mxGeometry>
        </mxCell>
        <mxCell id="mPwbwdcTfQN4pYjI0akt-644" value="" style="endArrow=none;html=1;rounded=0;exitX=0;exitY=0;exitDx=10;exitDy=10;exitPerimeter=0;entryX=0;entryY=0;entryDx=10;entryDy=10;entryPerimeter=0;strokeColor=#808080;dashed=1;" edge="1" parent="mPwbwdcTfQN4pYjI0akt-592" source="mPwbwdcTfQN4pYjI0akt-637" target="mPwbwdcTfQN4pYjI0akt-638">
          <mxGeometry width="50" height="50" relative="1" as="geometry">
            <mxPoint x="70" y="83" as="sourcePoint" />
            <mxPoint x="150" y="107" as="targetPoint" />
          </mxGeometry>
        </mxCell>
        <mxCell id="mPwbwdcTfQN4pYjI0akt-645" value="" style="endArrow=none;html=1;rounded=0;exitX=0;exitY=0;exitDx=0;exitDy=0;exitPerimeter=0;entryX=0;entryY=0;entryDx=0;entryDy=13.75;entryPerimeter=0;strokeColor=#808080;dashed=1;" edge="1" parent="1" source="mPwbwdcTfQN4pYjI0akt-623" target="mPwbwdcTfQN4pYjI0akt-686">
          <mxGeometry width="50" height="50" relative="1" as="geometry">
            <mxPoint x="-720" y="-910" as="sourcePoint" />
            <mxPoint x="-670" y="-960" as="targetPoint" />
          </mxGeometry>
        </mxCell>
        <mxCell id="mPwbwdcTfQN4pYjI0akt-646" value="" style="endArrow=none;html=1;rounded=0;entryX=0;entryY=0;entryDx=10;entryDy=10;entryPerimeter=0;exitX=0;exitY=0;exitDx=0;exitDy=13.75;exitPerimeter=0;strokeColor=#808080;dashed=1;" edge="1" parent="1" source="mPwbwdcTfQN4pYjI0akt-693" target="mPwbwdcTfQN4pYjI0akt-637">
          <mxGeometry width="50" height="50" relative="1" as="geometry">
            <mxPoint x="-720" y="-910" as="sourcePoint" />
            <mxPoint x="-670" y="-960" as="targetPoint" />
          </mxGeometry>
        </mxCell>
        <mxCell id="mPwbwdcTfQN4pYjI0akt-647" value="" style="endArrow=none;html=1;rounded=0;entryX=1;entryY=1;entryDx=0;entryDy=0;entryPerimeter=0;exitX=0;exitY=0;exitDx=0;exitDy=0;exitPerimeter=0;strokeColor=#808080;dashed=1;" edge="1" parent="1" source="mPwbwdcTfQN4pYjI0akt-624" target="mPwbwdcTfQN4pYjI0akt-679">
          <mxGeometry width="50" height="50" relative="1" as="geometry">
            <mxPoint x="-720" y="-880" as="sourcePoint" />
            <mxPoint x="-670" y="-930" as="targetPoint" />
          </mxGeometry>
        </mxCell>
        <mxCell id="mPwbwdcTfQN4pYjI0akt-648" value="" style="endArrow=none;html=1;rounded=0;entryX=1;entryY=1;entryDx=0;entryDy=0;entryPerimeter=0;exitX=1;exitY=1;exitDx=0;exitDy=0;exitPerimeter=0;strokeColor=#808080;dashed=1;" edge="1" parent="1" source="mPwbwdcTfQN4pYjI0akt-635" target="mPwbwdcTfQN4pYjI0akt-698">
          <mxGeometry width="50" height="50" relative="1" as="geometry">
            <mxPoint x="-720" y="-880" as="sourcePoint" />
            <mxPoint x="-670" y="-930" as="targetPoint" />
          </mxGeometry>
        </mxCell>
        <mxCell id="mPwbwdcTfQN4pYjI0akt-649" value="" style="group" vertex="1" connectable="0" parent="1">
          <mxGeometry x="-660" y="-990" width="80" height="202.75" as="geometry" />
        </mxCell>
        <mxCell id="mPwbwdcTfQN4pYjI0akt-650" value="" style="shape=cube;whiteSpace=wrap;html=1;boundedLbl=1;backgroundOutline=1;darkOpacity=0.05;darkOpacity2=0.1;size=40;direction=east;flipH=1;fillColor=#FFFFFF;strokeColor=#C2C2C2;fillStyle=solid;" vertex="1" parent="mPwbwdcTfQN4pYjI0akt-649">
          <mxGeometry x="70" y="40" width="10" height="23.75" as="geometry" />
        </mxCell>
        <mxCell id="mPwbwdcTfQN4pYjI0akt-651" value="" style="shape=cube;whiteSpace=wrap;html=1;boundedLbl=1;backgroundOutline=1;darkOpacity=0.05;darkOpacity2=0.1;size=40;direction=east;flipH=1;fillColor=#FFFFFF;strokeColor=#C2C2C2;fillStyle=solid;" vertex="1" parent="mPwbwdcTfQN4pYjI0akt-649">
          <mxGeometry x="70" y="27" width="10" height="23.75" as="geometry" />
        </mxCell>
        <mxCell id="mPwbwdcTfQN4pYjI0akt-652" value="" style="shape=cube;whiteSpace=wrap;html=1;boundedLbl=1;backgroundOutline=1;darkOpacity=0.05;darkOpacity2=0.1;size=40;direction=east;flipH=1;fillColor=#FFFFFF;strokeColor=#C2C2C2;fillStyle=solid;" vertex="1" parent="mPwbwdcTfQN4pYjI0akt-649">
          <mxGeometry x="70" y="13.25" width="10" height="23.75" as="geometry" />
        </mxCell>
        <mxCell id="mPwbwdcTfQN4pYjI0akt-653" value="" style="shape=cube;whiteSpace=wrap;html=1;boundedLbl=1;backgroundOutline=1;darkOpacity=0.05;darkOpacity2=0.1;size=40;direction=east;flipH=1;fillColor=#FFFFFF;strokeColor=#C2C2C2;fillStyle=solid;" vertex="1" parent="mPwbwdcTfQN4pYjI0akt-649">
          <mxGeometry x="70" y="54" width="10" height="23.75" as="geometry" />
        </mxCell>
        <mxCell id="mPwbwdcTfQN4pYjI0akt-654" value="" style="shape=cube;whiteSpace=wrap;html=1;boundedLbl=1;backgroundOutline=1;darkOpacity=0.05;darkOpacity2=0.1;size=40;direction=east;flipH=1;fillColor=#FFFFFF;strokeColor=#C2C2C2;fillStyle=solid;" vertex="1" parent="mPwbwdcTfQN4pYjI0akt-649">
          <mxGeometry x="70" y="67.75" width="10" height="23.75" as="geometry" />
        </mxCell>
        <mxCell id="mPwbwdcTfQN4pYjI0akt-655" value="" style="shape=cube;whiteSpace=wrap;html=1;boundedLbl=1;backgroundOutline=1;darkOpacity=0.05;darkOpacity2=0.1;size=40;direction=east;flipH=1;fillColor=#FFFFFF;strokeColor=#C2C2C2;fillStyle=solid;" vertex="1" parent="mPwbwdcTfQN4pYjI0akt-649">
          <mxGeometry x="70" y="81.5" width="10" height="23.75" as="geometry" />
        </mxCell>
        <mxCell id="mPwbwdcTfQN4pYjI0akt-656" value="" style="shape=cube;whiteSpace=wrap;html=1;boundedLbl=1;backgroundOutline=1;darkOpacity=0.05;darkOpacity2=0.1;size=40;direction=east;flipH=1;fillColor=#FFFFFF;strokeColor=#C2C2C2;fillStyle=solid;" vertex="1" parent="mPwbwdcTfQN4pYjI0akt-649">
          <mxGeometry x="70" y="95.25" width="10" height="23.75" as="geometry" />
        </mxCell>
        <mxCell id="mPwbwdcTfQN4pYjI0akt-657" value="" style="shape=cube;whiteSpace=wrap;html=1;boundedLbl=1;backgroundOutline=1;darkOpacity=0.05;darkOpacity2=0.1;size=40;direction=east;flipH=1;fillColor=#D5E8D4;strokeColor=#C2C2C2;fillStyle=solid;" vertex="1" parent="mPwbwdcTfQN4pYjI0akt-649">
          <mxGeometry x="60" y="50.25" width="10" height="23.75" as="geometry" />
        </mxCell>
        <mxCell id="mPwbwdcTfQN4pYjI0akt-658" value="" style="shape=cube;whiteSpace=wrap;html=1;boundedLbl=1;backgroundOutline=1;darkOpacity=0.05;darkOpacity2=0.1;size=40;direction=east;flipH=1;fillColor=#D5E8D4;strokeColor=#C2C2C2;fillStyle=solid;" vertex="1" parent="mPwbwdcTfQN4pYjI0akt-649">
          <mxGeometry x="60" y="37.25" width="10" height="23.75" as="geometry" />
        </mxCell>
        <mxCell id="mPwbwdcTfQN4pYjI0akt-659" value="" style="shape=cube;whiteSpace=wrap;html=1;boundedLbl=1;backgroundOutline=1;darkOpacity=0.05;darkOpacity2=0.1;size=40;direction=east;flipH=1;fillColor=#FFFFFF;strokeColor=#C2C2C2;fillStyle=solid;" vertex="1" parent="mPwbwdcTfQN4pYjI0akt-649">
          <mxGeometry x="60" y="23.5" width="10" height="23.75" as="geometry" />
        </mxCell>
        <mxCell id="mPwbwdcTfQN4pYjI0akt-660" value="" style="shape=cube;whiteSpace=wrap;html=1;boundedLbl=1;backgroundOutline=1;darkOpacity=0.05;darkOpacity2=0.1;size=40;direction=east;flipH=1;fillColor=#D5E8D4;strokeColor=#C2C2C2;fillStyle=solid;" vertex="1" parent="mPwbwdcTfQN4pYjI0akt-649">
          <mxGeometry x="60" y="64.25" width="10" height="23.75" as="geometry" />
        </mxCell>
        <mxCell id="mPwbwdcTfQN4pYjI0akt-661" value="" style="shape=cube;whiteSpace=wrap;html=1;boundedLbl=1;backgroundOutline=1;darkOpacity=0.05;darkOpacity2=0.1;size=40;direction=east;flipH=1;fillColor=#D5E8D4;strokeColor=#C2C2C2;fillStyle=solid;" vertex="1" parent="mPwbwdcTfQN4pYjI0akt-649">
          <mxGeometry x="60" y="78" width="10" height="23.75" as="geometry" />
        </mxCell>
        <mxCell id="mPwbwdcTfQN4pYjI0akt-662" value="" style="shape=cube;whiteSpace=wrap;html=1;boundedLbl=1;backgroundOutline=1;darkOpacity=0.05;darkOpacity2=0.1;size=40;direction=east;flipH=1;fillColor=#D5E8D4;strokeColor=#C2C2C2;fillStyle=solid;" vertex="1" parent="mPwbwdcTfQN4pYjI0akt-649">
          <mxGeometry x="60" y="91.75" width="10" height="23.75" as="geometry" />
        </mxCell>
        <mxCell id="mPwbwdcTfQN4pYjI0akt-663" value="" style="shape=cube;whiteSpace=wrap;html=1;boundedLbl=1;backgroundOutline=1;darkOpacity=0.05;darkOpacity2=0.1;size=40;direction=east;flipH=1;fillColor=#FFFFFF;strokeColor=#C2C2C2;fillStyle=solid;" vertex="1" parent="mPwbwdcTfQN4pYjI0akt-649">
          <mxGeometry x="60" y="105.5" width="10" height="23.75" as="geometry" />
        </mxCell>
        <mxCell id="mPwbwdcTfQN4pYjI0akt-664" value="" style="shape=cube;whiteSpace=wrap;html=1;boundedLbl=1;backgroundOutline=1;darkOpacity=0.05;darkOpacity2=0.1;size=40;direction=east;flipH=1;fillColor=#D5E8D4;strokeColor=#C2C2C2;fillStyle=solid;" vertex="1" parent="mPwbwdcTfQN4pYjI0akt-649">
          <mxGeometry x="50" y="60" width="10" height="23.75" as="geometry" />
        </mxCell>
        <mxCell id="mPwbwdcTfQN4pYjI0akt-665" value="" style="shape=cube;whiteSpace=wrap;html=1;boundedLbl=1;backgroundOutline=1;darkOpacity=0.05;darkOpacity2=0.1;size=40;direction=east;flipH=1;fillColor=#D5E8D4;strokeColor=#C2C2C2;fillStyle=solid;" vertex="1" parent="mPwbwdcTfQN4pYjI0akt-649">
          <mxGeometry x="50" y="47" width="10" height="23.75" as="geometry" />
        </mxCell>
        <mxCell id="mPwbwdcTfQN4pYjI0akt-666" value="" style="shape=cube;whiteSpace=wrap;html=1;boundedLbl=1;backgroundOutline=1;darkOpacity=0.05;darkOpacity2=0.1;size=40;direction=east;flipH=1;fillColor=#FFFFFF;strokeColor=#C2C2C2;fillStyle=solid;" vertex="1" parent="mPwbwdcTfQN4pYjI0akt-649">
          <mxGeometry x="50" y="33.25" width="10" height="23.75" as="geometry" />
        </mxCell>
        <mxCell id="mPwbwdcTfQN4pYjI0akt-667" value="" style="shape=cube;whiteSpace=wrap;html=1;boundedLbl=1;backgroundOutline=1;darkOpacity=0.05;darkOpacity2=0.1;size=40;direction=east;flipH=1;fillColor=#D5E8D4;strokeColor=#C2C2C2;fillStyle=solid;" vertex="1" parent="mPwbwdcTfQN4pYjI0akt-649">
          <mxGeometry x="50" y="74" width="10" height="23.75" as="geometry" />
        </mxCell>
        <mxCell id="mPwbwdcTfQN4pYjI0akt-668" value="" style="shape=cube;whiteSpace=wrap;html=1;boundedLbl=1;backgroundOutline=1;darkOpacity=0.05;darkOpacity2=0.1;size=40;direction=east;flipH=1;fillColor=#D5E8D4;strokeColor=#C2C2C2;fillStyle=solid;" vertex="1" parent="mPwbwdcTfQN4pYjI0akt-649">
          <mxGeometry x="50" y="87.75" width="10" height="23.75" as="geometry" />
        </mxCell>
        <mxCell id="mPwbwdcTfQN4pYjI0akt-669" value="" style="shape=cube;whiteSpace=wrap;html=1;boundedLbl=1;backgroundOutline=1;darkOpacity=0.05;darkOpacity2=0.1;size=40;direction=east;flipH=1;fillColor=#D5E8D4;strokeColor=#C2C2C2;fillStyle=solid;" vertex="1" parent="mPwbwdcTfQN4pYjI0akt-649">
          <mxGeometry x="50" y="101.5" width="10" height="23.75" as="geometry" />
        </mxCell>
        <mxCell id="mPwbwdcTfQN4pYjI0akt-670" value="" style="shape=cube;whiteSpace=wrap;html=1;boundedLbl=1;backgroundOutline=1;darkOpacity=0.05;darkOpacity2=0.1;size=40;direction=east;flipH=1;fillColor=#FFFFFF;strokeColor=#C2C2C2;fillStyle=solid;" vertex="1" parent="mPwbwdcTfQN4pYjI0akt-649">
          <mxGeometry x="50" y="115.25" width="10" height="23.75" as="geometry" />
        </mxCell>
        <mxCell id="mPwbwdcTfQN4pYjI0akt-671" value="" style="shape=cube;whiteSpace=wrap;html=1;boundedLbl=1;backgroundOutline=1;darkOpacity=0.05;darkOpacity2=0.1;size=40;direction=east;flipH=1;fillColor=#97D077;strokeColor=#C2C2C2;fillStyle=solid;" vertex="1" parent="mPwbwdcTfQN4pYjI0akt-649">
          <mxGeometry x="40" y="69.25" width="10" height="23.75" as="geometry" />
        </mxCell>
        <mxCell id="mPwbwdcTfQN4pYjI0akt-672" value="" style="shape=cube;whiteSpace=wrap;html=1;boundedLbl=1;backgroundOutline=1;darkOpacity=0.05;darkOpacity2=0.1;size=40;direction=east;flipH=1;fillColor=#97D077;strokeColor=#C2C2C2;fillStyle=solid;" vertex="1" parent="mPwbwdcTfQN4pYjI0akt-649">
          <mxGeometry x="40" y="56.25" width="10" height="23.75" as="geometry" />
        </mxCell>
        <mxCell id="mPwbwdcTfQN4pYjI0akt-673" value="" style="shape=cube;whiteSpace=wrap;html=1;boundedLbl=1;backgroundOutline=1;darkOpacity=0.05;darkOpacity2=0.1;size=40;direction=east;flipH=1;fillColor=#FFFFFF;strokeColor=#C2C2C2;fillStyle=solid;" vertex="1" parent="mPwbwdcTfQN4pYjI0akt-649">
          <mxGeometry x="40" y="42.5" width="10" height="23.75" as="geometry" />
        </mxCell>
        <mxCell id="mPwbwdcTfQN4pYjI0akt-674" value="" style="shape=cube;whiteSpace=wrap;html=1;boundedLbl=1;backgroundOutline=1;darkOpacity=0.05;darkOpacity2=0.1;size=40;direction=east;flipH=1;fillColor=#67AB9F;strokeColor=#C2C2C2;fillStyle=solid;" vertex="1" parent="mPwbwdcTfQN4pYjI0akt-649">
          <mxGeometry x="40" y="83.25" width="10" height="23.75" as="geometry" />
        </mxCell>
        <mxCell id="mPwbwdcTfQN4pYjI0akt-675" value="" style="shape=cube;whiteSpace=wrap;html=1;boundedLbl=1;backgroundOutline=1;darkOpacity=0.05;darkOpacity2=0.1;size=40;direction=east;flipH=1;fillColor=#D5E8D4;strokeColor=#C2C2C2;fillStyle=solid;" vertex="1" parent="mPwbwdcTfQN4pYjI0akt-649">
          <mxGeometry x="40" y="97" width="10" height="23.75" as="geometry" />
        </mxCell>
        <mxCell id="mPwbwdcTfQN4pYjI0akt-676" value="" style="shape=cube;whiteSpace=wrap;html=1;boundedLbl=1;backgroundOutline=1;darkOpacity=0.05;darkOpacity2=0.1;size=40;direction=east;flipH=1;fillColor=#D5E8D4;strokeColor=#C2C2C2;fillStyle=solid;" vertex="1" parent="mPwbwdcTfQN4pYjI0akt-649">
          <mxGeometry x="40" y="110.75" width="10" height="23.75" as="geometry" />
        </mxCell>
        <mxCell id="mPwbwdcTfQN4pYjI0akt-677" value="" style="shape=cube;whiteSpace=wrap;html=1;boundedLbl=1;backgroundOutline=1;darkOpacity=0.05;darkOpacity2=0.1;size=40;direction=east;flipH=1;fillColor=#FFFFFF;strokeColor=#C2C2C2;fillStyle=solid;" vertex="1" parent="mPwbwdcTfQN4pYjI0akt-649">
          <mxGeometry x="40" y="124.5" width="10" height="23.75" as="geometry" />
        </mxCell>
        <mxCell id="mPwbwdcTfQN4pYjI0akt-678" value="" style="shape=cube;whiteSpace=wrap;html=1;boundedLbl=1;backgroundOutline=1;darkOpacity=0.05;darkOpacity2=0.1;size=40;direction=east;flipH=1;fillColor=#97D077;strokeColor=#C2C2C2;fillStyle=solid;" vertex="1" parent="mPwbwdcTfQN4pYjI0akt-649">
          <mxGeometry x="30" y="79.75" width="10" height="23.75" as="geometry" />
        </mxCell>
        <mxCell id="mPwbwdcTfQN4pYjI0akt-679" value="" style="shape=cube;whiteSpace=wrap;html=1;boundedLbl=1;backgroundOutline=1;darkOpacity=0.05;darkOpacity2=0.1;size=40;direction=east;flipH=1;fillColor=#97D077;strokeColor=#C2C2C2;fillStyle=solid;" vertex="1" parent="mPwbwdcTfQN4pYjI0akt-649">
          <mxGeometry x="30" y="66.75" width="10" height="23.75" as="geometry" />
        </mxCell>
        <mxCell id="mPwbwdcTfQN4pYjI0akt-680" value="" style="shape=cube;whiteSpace=wrap;html=1;boundedLbl=1;backgroundOutline=1;darkOpacity=0.05;darkOpacity2=0.1;size=40;direction=east;flipH=1;fillColor=#FFFFFF;strokeColor=#C2C2C2;fillStyle=solid;" vertex="1" parent="mPwbwdcTfQN4pYjI0akt-649">
          <mxGeometry x="30" y="53" width="10" height="23.75" as="geometry" />
        </mxCell>
        <mxCell id="mPwbwdcTfQN4pYjI0akt-681" value="" style="shape=cube;whiteSpace=wrap;html=1;boundedLbl=1;backgroundOutline=1;darkOpacity=0.05;darkOpacity2=0.1;size=40;direction=east;flipH=1;fillColor=#97D077;strokeColor=#C2C2C2;fillStyle=solid;" vertex="1" parent="mPwbwdcTfQN4pYjI0akt-649">
          <mxGeometry x="30" y="93.75" width="10" height="23.75" as="geometry" />
        </mxCell>
        <mxCell id="mPwbwdcTfQN4pYjI0akt-682" value="" style="shape=cube;whiteSpace=wrap;html=1;boundedLbl=1;backgroundOutline=1;darkOpacity=0.05;darkOpacity2=0.1;size=40;direction=east;flipH=1;fillColor=#D5E8D4;strokeColor=#C2C2C2;fillStyle=solid;" vertex="1" parent="mPwbwdcTfQN4pYjI0akt-649">
          <mxGeometry x="30" y="107.5" width="10" height="23.75" as="geometry" />
        </mxCell>
        <mxCell id="mPwbwdcTfQN4pYjI0akt-683" value="" style="shape=cube;whiteSpace=wrap;html=1;boundedLbl=1;backgroundOutline=1;darkOpacity=0.05;darkOpacity2=0.1;size=40;direction=east;flipH=1;fillColor=#D5E8D4;strokeColor=#C2C2C2;fillStyle=solid;" vertex="1" parent="mPwbwdcTfQN4pYjI0akt-649">
          <mxGeometry x="30" y="121.25" width="10" height="23.75" as="geometry" />
        </mxCell>
        <mxCell id="mPwbwdcTfQN4pYjI0akt-684" value="" style="shape=cube;whiteSpace=wrap;html=1;boundedLbl=1;backgroundOutline=1;darkOpacity=0.05;darkOpacity2=0.1;size=40;direction=east;flipH=1;fillColor=#FFFFFF;strokeColor=#C2C2C2;fillStyle=solid;" vertex="1" parent="mPwbwdcTfQN4pYjI0akt-649">
          <mxGeometry x="30" y="135" width="10" height="23.75" as="geometry" />
        </mxCell>
        <mxCell id="mPwbwdcTfQN4pYjI0akt-685" value="" style="shape=cube;whiteSpace=wrap;html=1;boundedLbl=1;backgroundOutline=1;darkOpacity=0.05;darkOpacity2=0.1;size=40;direction=east;flipH=1;fillColor=#97D077;strokeColor=#C2C2C2;fillStyle=solid;" vertex="1" parent="mPwbwdcTfQN4pYjI0akt-649">
          <mxGeometry x="20" y="90" width="10" height="23.75" as="geometry" />
        </mxCell>
        <mxCell id="mPwbwdcTfQN4pYjI0akt-686" value="" style="shape=cube;whiteSpace=wrap;html=1;boundedLbl=1;backgroundOutline=1;darkOpacity=0.05;darkOpacity2=0.1;size=40;direction=east;flipH=1;fillColor=#FFFFFF;strokeColor=#C2C2C2;fillStyle=solid;" vertex="1" parent="mPwbwdcTfQN4pYjI0akt-649">
          <mxGeometry x="20" y="63.25" width="10" height="23.75" as="geometry" />
        </mxCell>
        <mxCell id="mPwbwdcTfQN4pYjI0akt-687" value="" style="shape=cube;whiteSpace=wrap;html=1;boundedLbl=1;backgroundOutline=1;darkOpacity=0.05;darkOpacity2=0.1;size=40;direction=east;flipH=1;fillColor=#97D077;strokeColor=#C2C2C2;fillStyle=solid;" vertex="1" parent="mPwbwdcTfQN4pYjI0akt-649">
          <mxGeometry x="20" y="104" width="10" height="23.75" as="geometry" />
        </mxCell>
        <mxCell id="mPwbwdcTfQN4pYjI0akt-688" value="" style="shape=cube;whiteSpace=wrap;html=1;boundedLbl=1;backgroundOutline=1;darkOpacity=0.05;darkOpacity2=0.1;size=40;direction=east;flipH=1;fillColor=#D5E8D4;strokeColor=#C2C2C2;fillStyle=solid;" vertex="1" parent="mPwbwdcTfQN4pYjI0akt-649">
          <mxGeometry x="20" y="117.75" width="10" height="23.75" as="geometry" />
        </mxCell>
        <mxCell id="mPwbwdcTfQN4pYjI0akt-689" value="" style="shape=cube;whiteSpace=wrap;html=1;boundedLbl=1;backgroundOutline=1;darkOpacity=0.05;darkOpacity2=0.1;size=40;direction=east;flipH=1;fillColor=#D5E8D4;strokeColor=#C2C2C2;fillStyle=solid;" vertex="1" parent="mPwbwdcTfQN4pYjI0akt-649">
          <mxGeometry x="20" y="131.5" width="10" height="23.75" as="geometry" />
        </mxCell>
        <mxCell id="mPwbwdcTfQN4pYjI0akt-690" value="" style="shape=cube;whiteSpace=wrap;html=1;boundedLbl=1;backgroundOutline=1;darkOpacity=0.05;darkOpacity2=0.1;size=40;direction=east;flipH=1;fillColor=#FFFFFF;strokeColor=#C2C2C2;fillStyle=solid;" vertex="1" parent="mPwbwdcTfQN4pYjI0akt-649">
          <mxGeometry x="20" y="145.25" width="10" height="23.75" as="geometry" />
        </mxCell>
        <mxCell id="mPwbwdcTfQN4pYjI0akt-691" value="" style="shape=cube;whiteSpace=wrap;html=1;boundedLbl=1;backgroundOutline=1;darkOpacity=0.05;darkOpacity2=0.1;size=40;direction=east;flipH=1;fillColor=#FFFFFF;strokeColor=#C2C2C2;fillStyle=solid;" vertex="1" parent="mPwbwdcTfQN4pYjI0akt-649">
          <mxGeometry x="10" y="99.75" width="10" height="23.75" as="geometry" />
        </mxCell>
        <mxCell id="mPwbwdcTfQN4pYjI0akt-692" value="" style="shape=cube;whiteSpace=wrap;html=1;boundedLbl=1;backgroundOutline=1;darkOpacity=0.05;darkOpacity2=0.1;size=40;direction=east;flipH=1;fillColor=#FFFFFF;strokeColor=#C2C2C2;fillStyle=solid;" vertex="1" parent="mPwbwdcTfQN4pYjI0akt-649">
          <mxGeometry x="10" y="86.75" width="10" height="23.75" as="geometry" />
        </mxCell>
        <mxCell id="mPwbwdcTfQN4pYjI0akt-693" value="" style="shape=cube;whiteSpace=wrap;html=1;boundedLbl=1;backgroundOutline=1;darkOpacity=0.05;darkOpacity2=0.1;size=40;direction=east;flipH=1;fillColor=#FFFFFF;strokeColor=#C2C2C2;fillStyle=solid;" vertex="1" parent="mPwbwdcTfQN4pYjI0akt-649">
          <mxGeometry x="10" y="73" width="10" height="23.75" as="geometry" />
        </mxCell>
        <mxCell id="mPwbwdcTfQN4pYjI0akt-694" value="" style="shape=cube;whiteSpace=wrap;html=1;boundedLbl=1;backgroundOutline=1;darkOpacity=0.05;darkOpacity2=0.1;size=40;direction=east;flipH=1;fillColor=#FFFFFF;strokeColor=#C2C2C2;fillStyle=solid;" vertex="1" parent="mPwbwdcTfQN4pYjI0akt-649">
          <mxGeometry x="10" y="113.75" width="10" height="23.75" as="geometry" />
        </mxCell>
        <mxCell id="mPwbwdcTfQN4pYjI0akt-695" value="" style="shape=cube;whiteSpace=wrap;html=1;boundedLbl=1;backgroundOutline=1;darkOpacity=0.05;darkOpacity2=0.1;size=40;direction=east;flipH=1;fillColor=#FFFFFF;strokeColor=#C2C2C2;fillStyle=solid;" vertex="1" parent="mPwbwdcTfQN4pYjI0akt-649">
          <mxGeometry x="10" y="127.5" width="10" height="23.75" as="geometry" />
        </mxCell>
        <mxCell id="mPwbwdcTfQN4pYjI0akt-696" value="" style="shape=cube;whiteSpace=wrap;html=1;boundedLbl=1;backgroundOutline=1;darkOpacity=0.05;darkOpacity2=0.1;size=40;direction=east;flipH=1;fillColor=#FFFFFF;strokeColor=#C2C2C2;fillStyle=solid;" vertex="1" parent="mPwbwdcTfQN4pYjI0akt-649">
          <mxGeometry x="10" y="141.25" width="10" height="23.75" as="geometry" />
        </mxCell>
        <mxCell id="mPwbwdcTfQN4pYjI0akt-697" value="" style="shape=cube;whiteSpace=wrap;html=1;boundedLbl=1;backgroundOutline=1;darkOpacity=0.05;darkOpacity2=0.1;size=40;direction=east;flipH=1;fillColor=#FFFFFF;strokeColor=#C2C2C2;fillStyle=solid;" vertex="1" parent="mPwbwdcTfQN4pYjI0akt-649">
          <mxGeometry x="10" y="155" width="10" height="23.75" as="geometry" />
        </mxCell>
        <mxCell id="mPwbwdcTfQN4pYjI0akt-698" value="" style="shape=cube;whiteSpace=wrap;html=1;boundedLbl=1;backgroundOutline=1;darkOpacity=0.05;darkOpacity2=0.1;size=40;direction=east;flipH=1;fillColor=#97D077;strokeColor=#808080;fillStyle=solid;" vertex="1" parent="mPwbwdcTfQN4pYjI0akt-649">
          <mxGeometry x="20" y="77" width="10" height="23.75" as="geometry" />
        </mxCell>
        <mxCell id="mPwbwdcTfQN4pYjI0akt-699" value="" style="endArrow=none;html=1;rounded=0;exitX=0;exitY=0;exitDx=0;exitDy=0;exitPerimeter=0;entryX=0;entryY=0;entryDx=10;entryDy=10;entryPerimeter=0;strokeColor=#808080;dashed=1;" edge="1" parent="mPwbwdcTfQN4pYjI0akt-649" source="mPwbwdcTfQN4pYjI0akt-672" target="mPwbwdcTfQN4pYjI0akt-698">
          <mxGeometry width="50" height="50" relative="1" as="geometry">
            <mxPoint x="-10" y="93" as="sourcePoint" />
            <mxPoint x="70" y="117" as="targetPoint" />
          </mxGeometry>
        </mxCell>
        <mxCell id="mPwbwdcTfQN4pYjI0akt-700" value="" style="endArrow=none;html=1;rounded=0;exitX=0;exitY=0;exitDx=0;exitDy=0;exitPerimeter=0;entryX=0;entryY=0;entryDx=10;entryDy=10;entryPerimeter=0;strokeColor=#808080;dashed=1;" edge="1" parent="mPwbwdcTfQN4pYjI0akt-649" source="mPwbwdcTfQN4pYjI0akt-672" target="mPwbwdcTfQN4pYjI0akt-668">
          <mxGeometry width="50" height="50" relative="1" as="geometry">
            <mxPoint y="103" as="sourcePoint" />
            <mxPoint x="80" y="127" as="targetPoint" />
          </mxGeometry>
        </mxCell>
        <mxCell id="mPwbwdcTfQN4pYjI0akt-701" value="" style="endArrow=none;html=1;rounded=0;exitX=0;exitY=0;exitDx=0;exitDy=0;exitPerimeter=0;strokeColor=#808080;dashed=1;entryX=0;entryY=0;entryDx=10;entryDy=10;entryPerimeter=0;" edge="1" parent="mPwbwdcTfQN4pYjI0akt-649" source="mPwbwdcTfQN4pYjI0akt-692" target="mPwbwdcTfQN4pYjI0akt-688">
          <mxGeometry width="50" height="50" relative="1" as="geometry">
            <mxPoint x="10" y="113" as="sourcePoint" />
            <mxPoint x="20" y="130" as="targetPoint" />
          </mxGeometry>
        </mxCell>
        <mxCell id="mPwbwdcTfQN4pYjI0akt-702" value="" style="endArrow=none;html=1;rounded=0;exitX=0;exitY=0;exitDx=0;exitDy=0;exitPerimeter=0;entryX=0;entryY=0;entryDx=0;entryDy=13.75;entryPerimeter=0;strokeColor=#808080;dashed=1;" edge="1" parent="mPwbwdcTfQN4pYjI0akt-649" source="mPwbwdcTfQN4pYjI0akt-675" target="mPwbwdcTfQN4pYjI0akt-694">
          <mxGeometry width="50" height="50" relative="1" as="geometry">
            <mxPoint x="20" y="123" as="sourcePoint" />
            <mxPoint x="100" y="147" as="targetPoint" />
          </mxGeometry>
        </mxCell>
        <mxCell id="mPwbwdcTfQN4pYjI0akt-703" value="" style="endArrow=none;html=1;rounded=0;entryX=0;entryY=0;entryDx=10;entryDy=10;entryPerimeter=0;exitX=0;exitY=0;exitDx=0;exitDy=13.75;exitPerimeter=0;strokeColor=#808080;dashed=1;" edge="1" parent="1" source="mPwbwdcTfQN4pYjI0akt-736" target="mPwbwdcTfQN4pYjI0akt-665">
          <mxGeometry width="50" height="50" relative="1" as="geometry">
            <mxPoint x="-620" y="-850" as="sourcePoint" />
            <mxPoint x="-570" y="-900" as="targetPoint" />
          </mxGeometry>
        </mxCell>
        <mxCell id="mPwbwdcTfQN4pYjI0akt-704" value="" style="endArrow=none;html=1;rounded=0;entryX=0;entryY=0;entryDx=0;entryDy=13.75;entryPerimeter=0;exitX=0;exitY=0;exitDx=0;exitDy=13.75;exitPerimeter=0;strokeColor=#808080;dashed=1;" edge="1" parent="1" source="mPwbwdcTfQN4pYjI0akt-743" target="mPwbwdcTfQN4pYjI0akt-693">
          <mxGeometry width="50" height="50" relative="1" as="geometry">
            <mxPoint x="-620" y="-850" as="sourcePoint" />
            <mxPoint x="-570" y="-900" as="targetPoint" />
          </mxGeometry>
        </mxCell>
        <mxCell id="mPwbwdcTfQN4pYjI0akt-705" value="" style="endArrow=none;html=1;rounded=0;entryX=0;entryY=0;entryDx=0;entryDy=13.75;entryPerimeter=0;exitX=0;exitY=0;exitDx=10;exitDy=10;exitPerimeter=0;strokeColor=#808080;dashed=1;" edge="1" parent="1" source="mPwbwdcTfQN4pYjI0akt-668" target="mPwbwdcTfQN4pYjI0akt-756">
          <mxGeometry width="50" height="50" relative="1" as="geometry">
            <mxPoint x="-620" y="-850" as="sourcePoint" />
            <mxPoint x="-570" y="-900" as="targetPoint" />
          </mxGeometry>
        </mxCell>
        <mxCell id="mPwbwdcTfQN4pYjI0akt-706" value="" style="endArrow=none;html=1;rounded=0;entryX=0;entryY=0;entryDx=0;entryDy=13.75;entryPerimeter=0;exitX=0;exitY=0;exitDx=10;exitDy=10;exitPerimeter=0;strokeColor=#808080;dashed=1;" edge="1" parent="1" source="mPwbwdcTfQN4pYjI0akt-688" target="mPwbwdcTfQN4pYjI0akt-742">
          <mxGeometry width="50" height="50" relative="1" as="geometry">
            <mxPoint x="-620" y="-850" as="sourcePoint" />
            <mxPoint x="-570" y="-900" as="targetPoint" />
          </mxGeometry>
        </mxCell>
        <mxCell id="mPwbwdcTfQN4pYjI0akt-707" value="" style="group" vertex="1" connectable="0" parent="1">
          <mxGeometry x="-570" y="-990" width="80" height="202.75" as="geometry" />
        </mxCell>
        <mxCell id="mPwbwdcTfQN4pYjI0akt-708" value="" style="shape=cube;whiteSpace=wrap;html=1;boundedLbl=1;backgroundOutline=1;darkOpacity=0.05;darkOpacity2=0.1;size=40;direction=east;flipH=1;fillColor=#FFFFFF;strokeColor=#C2C2C2;fillStyle=solid;" vertex="1" parent="mPwbwdcTfQN4pYjI0akt-707">
          <mxGeometry x="70" y="40" width="10" height="23.75" as="geometry" />
        </mxCell>
        <mxCell id="mPwbwdcTfQN4pYjI0akt-709" value="" style="shape=cube;whiteSpace=wrap;html=1;boundedLbl=1;backgroundOutline=1;darkOpacity=0.05;darkOpacity2=0.1;size=40;direction=east;flipH=1;fillColor=#FFFFFF;strokeColor=#C2C2C2;fillStyle=solid;" vertex="1" parent="mPwbwdcTfQN4pYjI0akt-707">
          <mxGeometry x="70" y="27" width="10" height="23.75" as="geometry" />
        </mxCell>
        <mxCell id="mPwbwdcTfQN4pYjI0akt-710" value="" style="shape=cube;whiteSpace=wrap;html=1;boundedLbl=1;backgroundOutline=1;darkOpacity=0.05;darkOpacity2=0.1;size=40;direction=east;flipH=1;fillColor=#FFFFFF;strokeColor=#C2C2C2;fillStyle=solid;" vertex="1" parent="mPwbwdcTfQN4pYjI0akt-707">
          <mxGeometry x="70" y="13.25" width="10" height="23.75" as="geometry" />
        </mxCell>
        <mxCell id="mPwbwdcTfQN4pYjI0akt-711" value="" style="shape=cube;whiteSpace=wrap;html=1;boundedLbl=1;backgroundOutline=1;darkOpacity=0.05;darkOpacity2=0.1;size=40;direction=east;flipH=1;fillColor=#FFFFFF;strokeColor=#C2C2C2;fillStyle=solid;" vertex="1" parent="mPwbwdcTfQN4pYjI0akt-707">
          <mxGeometry x="70" y="54" width="10" height="23.75" as="geometry" />
        </mxCell>
        <mxCell id="mPwbwdcTfQN4pYjI0akt-712" value="" style="shape=cube;whiteSpace=wrap;html=1;boundedLbl=1;backgroundOutline=1;darkOpacity=0.05;darkOpacity2=0.1;size=40;direction=east;flipH=1;fillColor=#FFFFFF;strokeColor=#C2C2C2;fillStyle=solid;" vertex="1" parent="mPwbwdcTfQN4pYjI0akt-707">
          <mxGeometry x="70" y="67.75" width="10" height="23.75" as="geometry" />
        </mxCell>
        <mxCell id="mPwbwdcTfQN4pYjI0akt-713" value="" style="shape=cube;whiteSpace=wrap;html=1;boundedLbl=1;backgroundOutline=1;darkOpacity=0.05;darkOpacity2=0.1;size=40;direction=east;flipH=1;fillColor=#FFFFFF;strokeColor=#C2C2C2;fillStyle=solid;" vertex="1" parent="mPwbwdcTfQN4pYjI0akt-707">
          <mxGeometry x="70" y="81.5" width="10" height="23.75" as="geometry" />
        </mxCell>
        <mxCell id="mPwbwdcTfQN4pYjI0akt-714" value="" style="shape=cube;whiteSpace=wrap;html=1;boundedLbl=1;backgroundOutline=1;darkOpacity=0.05;darkOpacity2=0.1;size=40;direction=east;flipH=1;fillColor=#FFFFFF;strokeColor=#C2C2C2;fillStyle=solid;" vertex="1" parent="mPwbwdcTfQN4pYjI0akt-707">
          <mxGeometry x="70" y="95.25" width="10" height="23.75" as="geometry" />
        </mxCell>
        <mxCell id="mPwbwdcTfQN4pYjI0akt-715" value="" style="shape=cube;whiteSpace=wrap;html=1;boundedLbl=1;backgroundOutline=1;darkOpacity=0.05;darkOpacity2=0.1;size=40;direction=east;flipH=1;fillColor=#FFFFFF;strokeColor=#C2C2C2;fillStyle=solid;" vertex="1" parent="mPwbwdcTfQN4pYjI0akt-707">
          <mxGeometry x="60" y="50.25" width="10" height="23.75" as="geometry" />
        </mxCell>
        <mxCell id="mPwbwdcTfQN4pYjI0akt-716" value="" style="shape=cube;whiteSpace=wrap;html=1;boundedLbl=1;backgroundOutline=1;darkOpacity=0.05;darkOpacity2=0.1;size=40;direction=east;flipH=1;fillColor=#FFFFFF;strokeColor=#C2C2C2;fillStyle=solid;" vertex="1" parent="mPwbwdcTfQN4pYjI0akt-707">
          <mxGeometry x="60" y="37.25" width="10" height="23.75" as="geometry" />
        </mxCell>
        <mxCell id="mPwbwdcTfQN4pYjI0akt-717" value="" style="shape=cube;whiteSpace=wrap;html=1;boundedLbl=1;backgroundOutline=1;darkOpacity=0.05;darkOpacity2=0.1;size=40;direction=east;flipH=1;fillColor=#FFFFFF;strokeColor=#C2C2C2;fillStyle=solid;" vertex="1" parent="mPwbwdcTfQN4pYjI0akt-707">
          <mxGeometry x="60" y="23.5" width="10" height="23.75" as="geometry" />
        </mxCell>
        <mxCell id="mPwbwdcTfQN4pYjI0akt-718" value="" style="shape=cube;whiteSpace=wrap;html=1;boundedLbl=1;backgroundOutline=1;darkOpacity=0.05;darkOpacity2=0.1;size=40;direction=east;flipH=1;fillColor=#FFFFFF;strokeColor=#C2C2C2;fillStyle=solid;" vertex="1" parent="mPwbwdcTfQN4pYjI0akt-707">
          <mxGeometry x="60" y="64.25" width="10" height="23.75" as="geometry" />
        </mxCell>
        <mxCell id="mPwbwdcTfQN4pYjI0akt-719" value="" style="shape=cube;whiteSpace=wrap;html=1;boundedLbl=1;backgroundOutline=1;darkOpacity=0.05;darkOpacity2=0.1;size=40;direction=east;flipH=1;fillColor=#FFFFFF;strokeColor=#C2C2C2;fillStyle=solid;" vertex="1" parent="mPwbwdcTfQN4pYjI0akt-707">
          <mxGeometry x="60" y="78" width="10" height="23.75" as="geometry" />
        </mxCell>
        <mxCell id="mPwbwdcTfQN4pYjI0akt-720" value="" style="shape=cube;whiteSpace=wrap;html=1;boundedLbl=1;backgroundOutline=1;darkOpacity=0.05;darkOpacity2=0.1;size=40;direction=east;flipH=1;fillColor=#FFFFFF;strokeColor=#C2C2C2;fillStyle=solid;" vertex="1" parent="mPwbwdcTfQN4pYjI0akt-707">
          <mxGeometry x="60" y="91.75" width="10" height="23.75" as="geometry" />
        </mxCell>
        <mxCell id="mPwbwdcTfQN4pYjI0akt-721" value="" style="shape=cube;whiteSpace=wrap;html=1;boundedLbl=1;backgroundOutline=1;darkOpacity=0.05;darkOpacity2=0.1;size=40;direction=east;flipH=1;fillColor=#FFFFFF;strokeColor=#C2C2C2;fillStyle=solid;" vertex="1" parent="mPwbwdcTfQN4pYjI0akt-707">
          <mxGeometry x="60" y="105.5" width="10" height="23.75" as="geometry" />
        </mxCell>
        <mxCell id="mPwbwdcTfQN4pYjI0akt-722" value="" style="shape=cube;whiteSpace=wrap;html=1;boundedLbl=1;backgroundOutline=1;darkOpacity=0.05;darkOpacity2=0.1;size=40;direction=east;flipH=1;fillColor=#97D077;strokeColor=#C2C2C2;fillStyle=solid;" vertex="1" parent="mPwbwdcTfQN4pYjI0akt-707">
          <mxGeometry x="50" y="60" width="10" height="23.75" as="geometry" />
        </mxCell>
        <mxCell id="mPwbwdcTfQN4pYjI0akt-723" value="" style="shape=cube;whiteSpace=wrap;html=1;boundedLbl=1;backgroundOutline=1;darkOpacity=0.05;darkOpacity2=0.1;size=40;direction=east;flipH=1;fillColor=#FFFFFF;strokeColor=#C2C2C2;fillStyle=solid;" vertex="1" parent="mPwbwdcTfQN4pYjI0akt-707">
          <mxGeometry x="50" y="47" width="10" height="23.75" as="geometry" />
        </mxCell>
        <mxCell id="mPwbwdcTfQN4pYjI0akt-724" value="" style="shape=cube;whiteSpace=wrap;html=1;boundedLbl=1;backgroundOutline=1;darkOpacity=0.05;darkOpacity2=0.1;size=40;direction=east;flipH=1;fillColor=#FFFFFF;strokeColor=#C2C2C2;fillStyle=solid;" vertex="1" parent="mPwbwdcTfQN4pYjI0akt-707">
          <mxGeometry x="50" y="33.25" width="10" height="23.75" as="geometry" />
        </mxCell>
        <mxCell id="mPwbwdcTfQN4pYjI0akt-725" value="" style="shape=cube;whiteSpace=wrap;html=1;boundedLbl=1;backgroundOutline=1;darkOpacity=0.05;darkOpacity2=0.1;size=40;direction=east;flipH=1;fillColor=#97D077;strokeColor=#C2C2C2;fillStyle=solid;" vertex="1" parent="mPwbwdcTfQN4pYjI0akt-707">
          <mxGeometry x="50" y="74" width="10" height="23.75" as="geometry" />
        </mxCell>
        <mxCell id="mPwbwdcTfQN4pYjI0akt-726" value="" style="shape=cube;whiteSpace=wrap;html=1;boundedLbl=1;backgroundOutline=1;darkOpacity=0.05;darkOpacity2=0.1;size=40;direction=east;flipH=1;fillColor=#97D077;strokeColor=#C2C2C2;fillStyle=solid;" vertex="1" parent="mPwbwdcTfQN4pYjI0akt-707">
          <mxGeometry x="50" y="87.75" width="10" height="23.75" as="geometry" />
        </mxCell>
        <mxCell id="mPwbwdcTfQN4pYjI0akt-727" value="" style="shape=cube;whiteSpace=wrap;html=1;boundedLbl=1;backgroundOutline=1;darkOpacity=0.05;darkOpacity2=0.1;size=40;direction=east;flipH=1;fillColor=#FFFFFF;strokeColor=#C2C2C2;fillStyle=solid;" vertex="1" parent="mPwbwdcTfQN4pYjI0akt-707">
          <mxGeometry x="50" y="101.5" width="10" height="23.75" as="geometry" />
        </mxCell>
        <mxCell id="mPwbwdcTfQN4pYjI0akt-728" value="" style="shape=cube;whiteSpace=wrap;html=1;boundedLbl=1;backgroundOutline=1;darkOpacity=0.05;darkOpacity2=0.1;size=40;direction=east;flipH=1;fillColor=#FFFFFF;strokeColor=#C2C2C2;fillStyle=solid;" vertex="1" parent="mPwbwdcTfQN4pYjI0akt-707">
          <mxGeometry x="50" y="115.25" width="10" height="23.75" as="geometry" />
        </mxCell>
        <mxCell id="mPwbwdcTfQN4pYjI0akt-729" value="" style="shape=cube;whiteSpace=wrap;html=1;boundedLbl=1;backgroundOutline=1;darkOpacity=0.05;darkOpacity2=0.1;size=40;direction=east;flipH=1;fillColor=#97D077;strokeColor=#C2C2C2;fillStyle=solid;" vertex="1" parent="mPwbwdcTfQN4pYjI0akt-707">
          <mxGeometry x="40" y="69.25" width="10" height="23.75" as="geometry" />
        </mxCell>
        <mxCell id="mPwbwdcTfQN4pYjI0akt-730" value="" style="shape=cube;whiteSpace=wrap;html=1;boundedLbl=1;backgroundOutline=1;darkOpacity=0.05;darkOpacity2=0.1;size=40;direction=east;flipH=1;fillColor=#FFFFFF;strokeColor=#C2C2C2;fillStyle=solid;" vertex="1" parent="mPwbwdcTfQN4pYjI0akt-707">
          <mxGeometry x="40" y="56.25" width="10" height="23.75" as="geometry" />
        </mxCell>
        <mxCell id="mPwbwdcTfQN4pYjI0akt-731" value="" style="shape=cube;whiteSpace=wrap;html=1;boundedLbl=1;backgroundOutline=1;darkOpacity=0.05;darkOpacity2=0.1;size=40;direction=east;flipH=1;fillColor=#FFFFFF;strokeColor=#C2C2C2;fillStyle=solid;" vertex="1" parent="mPwbwdcTfQN4pYjI0akt-707">
          <mxGeometry x="40" y="42.5" width="10" height="23.75" as="geometry" />
        </mxCell>
        <mxCell id="mPwbwdcTfQN4pYjI0akt-732" value="" style="shape=cube;whiteSpace=wrap;html=1;boundedLbl=1;backgroundOutline=1;darkOpacity=0.05;darkOpacity2=0.1;size=40;direction=east;flipH=1;fillColor=#67AB9F;strokeColor=#C2C2C2;fillStyle=solid;" vertex="1" parent="mPwbwdcTfQN4pYjI0akt-707">
          <mxGeometry x="40" y="83.25" width="10" height="23.75" as="geometry" />
        </mxCell>
        <mxCell id="mPwbwdcTfQN4pYjI0akt-733" value="" style="shape=cube;whiteSpace=wrap;html=1;boundedLbl=1;backgroundOutline=1;darkOpacity=0.05;darkOpacity2=0.1;size=40;direction=east;flipH=1;fillColor=#97D077;strokeColor=#C2C2C2;fillStyle=solid;" vertex="1" parent="mPwbwdcTfQN4pYjI0akt-707">
          <mxGeometry x="40" y="97" width="10" height="23.75" as="geometry" />
        </mxCell>
        <mxCell id="mPwbwdcTfQN4pYjI0akt-734" value="" style="shape=cube;whiteSpace=wrap;html=1;boundedLbl=1;backgroundOutline=1;darkOpacity=0.05;darkOpacity2=0.1;size=40;direction=east;flipH=1;fillColor=#FFFFFF;strokeColor=#C2C2C2;fillStyle=solid;" vertex="1" parent="mPwbwdcTfQN4pYjI0akt-707">
          <mxGeometry x="40" y="110.75" width="10" height="23.75" as="geometry" />
        </mxCell>
        <mxCell id="mPwbwdcTfQN4pYjI0akt-735" value="" style="shape=cube;whiteSpace=wrap;html=1;boundedLbl=1;backgroundOutline=1;darkOpacity=0.05;darkOpacity2=0.1;size=40;direction=east;flipH=1;fillColor=#FFFFFF;strokeColor=#C2C2C2;fillStyle=solid;" vertex="1" parent="mPwbwdcTfQN4pYjI0akt-707">
          <mxGeometry x="40" y="124.5" width="10" height="23.75" as="geometry" />
        </mxCell>
        <mxCell id="mPwbwdcTfQN4pYjI0akt-736" value="" style="shape=cube;whiteSpace=wrap;html=1;boundedLbl=1;backgroundOutline=1;darkOpacity=0.05;darkOpacity2=0.1;size=40;direction=east;flipH=1;fillColor=#FFFFFF;strokeColor=#C2C2C2;fillStyle=solid;" vertex="1" parent="mPwbwdcTfQN4pYjI0akt-707">
          <mxGeometry x="30" y="66.75" width="10" height="23.75" as="geometry" />
        </mxCell>
        <mxCell id="mPwbwdcTfQN4pYjI0akt-737" value="" style="shape=cube;whiteSpace=wrap;html=1;boundedLbl=1;backgroundOutline=1;darkOpacity=0.05;darkOpacity2=0.1;size=40;direction=east;flipH=1;fillColor=#FFFFFF;strokeColor=#C2C2C2;fillStyle=solid;" vertex="1" parent="mPwbwdcTfQN4pYjI0akt-707">
          <mxGeometry x="30" y="53" width="10" height="23.75" as="geometry" />
        </mxCell>
        <mxCell id="mPwbwdcTfQN4pYjI0akt-738" value="" style="shape=cube;whiteSpace=wrap;html=1;boundedLbl=1;backgroundOutline=1;darkOpacity=0.05;darkOpacity2=0.1;size=40;direction=east;flipH=1;fillColor=#97D077;strokeColor=#C2C2C2;fillStyle=solid;" vertex="1" parent="mPwbwdcTfQN4pYjI0akt-707">
          <mxGeometry x="30" y="93.75" width="10" height="23.75" as="geometry" />
        </mxCell>
        <mxCell id="mPwbwdcTfQN4pYjI0akt-739" value="" style="shape=cube;whiteSpace=wrap;html=1;boundedLbl=1;backgroundOutline=1;darkOpacity=0.05;darkOpacity2=0.1;size=40;direction=east;flipH=1;fillColor=#97D077;strokeColor=#C2C2C2;fillStyle=solid;" vertex="1" parent="mPwbwdcTfQN4pYjI0akt-707">
          <mxGeometry x="30" y="107.5" width="10" height="23.75" as="geometry" />
        </mxCell>
        <mxCell id="mPwbwdcTfQN4pYjI0akt-740" value="" style="shape=cube;whiteSpace=wrap;html=1;boundedLbl=1;backgroundOutline=1;darkOpacity=0.05;darkOpacity2=0.1;size=40;direction=east;flipH=1;fillColor=#FFFFFF;strokeColor=#C2C2C2;fillStyle=solid;" vertex="1" parent="mPwbwdcTfQN4pYjI0akt-707">
          <mxGeometry x="30" y="121.25" width="10" height="23.75" as="geometry" />
        </mxCell>
        <mxCell id="mPwbwdcTfQN4pYjI0akt-741" value="" style="shape=cube;whiteSpace=wrap;html=1;boundedLbl=1;backgroundOutline=1;darkOpacity=0.05;darkOpacity2=0.1;size=40;direction=east;flipH=1;fillColor=#FFFFFF;strokeColor=#C2C2C2;fillStyle=solid;" vertex="1" parent="mPwbwdcTfQN4pYjI0akt-707">
          <mxGeometry x="30" y="135" width="10" height="23.75" as="geometry" />
        </mxCell>
        <mxCell id="mPwbwdcTfQN4pYjI0akt-742" value="" style="shape=cube;whiteSpace=wrap;html=1;boundedLbl=1;backgroundOutline=1;darkOpacity=0.05;darkOpacity2=0.1;size=40;direction=east;flipH=1;fillColor=#FFFFFF;strokeColor=#C2C2C2;fillStyle=solid;" vertex="1" parent="mPwbwdcTfQN4pYjI0akt-707">
          <mxGeometry x="20" y="90" width="10" height="23.75" as="geometry" />
        </mxCell>
        <mxCell id="mPwbwdcTfQN4pYjI0akt-743" value="" style="shape=cube;whiteSpace=wrap;html=1;boundedLbl=1;backgroundOutline=1;darkOpacity=0.05;darkOpacity2=0.1;size=40;direction=east;flipH=1;fillColor=#FFFFFF;strokeColor=#C2C2C2;fillStyle=solid;" vertex="1" parent="mPwbwdcTfQN4pYjI0akt-707">
          <mxGeometry x="20" y="77" width="10" height="23.75" as="geometry" />
        </mxCell>
        <mxCell id="mPwbwdcTfQN4pYjI0akt-744" value="" style="shape=cube;whiteSpace=wrap;html=1;boundedLbl=1;backgroundOutline=1;darkOpacity=0.05;darkOpacity2=0.1;size=40;direction=east;flipH=1;fillColor=#FFFFFF;strokeColor=#C2C2C2;fillStyle=solid;" vertex="1" parent="mPwbwdcTfQN4pYjI0akt-707">
          <mxGeometry x="20" y="63.25" width="10" height="23.75" as="geometry" />
        </mxCell>
        <mxCell id="mPwbwdcTfQN4pYjI0akt-745" value="" style="shape=cube;whiteSpace=wrap;html=1;boundedLbl=1;backgroundOutline=1;darkOpacity=0.05;darkOpacity2=0.1;size=40;direction=east;flipH=1;fillColor=#FFFFFF;strokeColor=#C2C2C2;fillStyle=solid;" vertex="1" parent="mPwbwdcTfQN4pYjI0akt-707">
          <mxGeometry x="20" y="104" width="10" height="23.75" as="geometry" />
        </mxCell>
        <mxCell id="mPwbwdcTfQN4pYjI0akt-746" value="" style="shape=cube;whiteSpace=wrap;html=1;boundedLbl=1;backgroundOutline=1;darkOpacity=0.05;darkOpacity2=0.1;size=40;direction=east;flipH=1;fillColor=#FFFFFF;strokeColor=#C2C2C2;fillStyle=solid;" vertex="1" parent="mPwbwdcTfQN4pYjI0akt-707">
          <mxGeometry x="20" y="117.75" width="10" height="23.75" as="geometry" />
        </mxCell>
        <mxCell id="mPwbwdcTfQN4pYjI0akt-747" value="" style="shape=cube;whiteSpace=wrap;html=1;boundedLbl=1;backgroundOutline=1;darkOpacity=0.05;darkOpacity2=0.1;size=40;direction=east;flipH=1;fillColor=#FFFFFF;strokeColor=#C2C2C2;fillStyle=solid;" vertex="1" parent="mPwbwdcTfQN4pYjI0akt-707">
          <mxGeometry x="20" y="131.5" width="10" height="23.75" as="geometry" />
        </mxCell>
        <mxCell id="mPwbwdcTfQN4pYjI0akt-748" value="" style="shape=cube;whiteSpace=wrap;html=1;boundedLbl=1;backgroundOutline=1;darkOpacity=0.05;darkOpacity2=0.1;size=40;direction=east;flipH=1;fillColor=#FFFFFF;strokeColor=#C2C2C2;fillStyle=solid;" vertex="1" parent="mPwbwdcTfQN4pYjI0akt-707">
          <mxGeometry x="20" y="145.25" width="10" height="23.75" as="geometry" />
        </mxCell>
        <mxCell id="mPwbwdcTfQN4pYjI0akt-749" value="" style="shape=cube;whiteSpace=wrap;html=1;boundedLbl=1;backgroundOutline=1;darkOpacity=0.05;darkOpacity2=0.1;size=40;direction=east;flipH=1;fillColor=#FFFFFF;strokeColor=#C2C2C2;fillStyle=solid;" vertex="1" parent="mPwbwdcTfQN4pYjI0akt-707">
          <mxGeometry x="10" y="99.75" width="10" height="23.75" as="geometry" />
        </mxCell>
        <mxCell id="mPwbwdcTfQN4pYjI0akt-750" value="" style="shape=cube;whiteSpace=wrap;html=1;boundedLbl=1;backgroundOutline=1;darkOpacity=0.05;darkOpacity2=0.1;size=40;direction=east;flipH=1;fillColor=#FFFFFF;strokeColor=#C2C2C2;fillStyle=solid;" vertex="1" parent="mPwbwdcTfQN4pYjI0akt-707">
          <mxGeometry x="10" y="86.75" width="10" height="23.75" as="geometry" />
        </mxCell>
        <mxCell id="mPwbwdcTfQN4pYjI0akt-751" value="" style="shape=cube;whiteSpace=wrap;html=1;boundedLbl=1;backgroundOutline=1;darkOpacity=0.05;darkOpacity2=0.1;size=40;direction=east;flipH=1;fillColor=#FFFFFF;strokeColor=#C2C2C2;fillStyle=solid;" vertex="1" parent="mPwbwdcTfQN4pYjI0akt-707">
          <mxGeometry x="10" y="73" width="10" height="23.75" as="geometry" />
        </mxCell>
        <mxCell id="mPwbwdcTfQN4pYjI0akt-752" value="" style="shape=cube;whiteSpace=wrap;html=1;boundedLbl=1;backgroundOutline=1;darkOpacity=0.05;darkOpacity2=0.1;size=40;direction=east;flipH=1;fillColor=#FFFFFF;strokeColor=#C2C2C2;fillStyle=solid;" vertex="1" parent="mPwbwdcTfQN4pYjI0akt-707">
          <mxGeometry x="10" y="113.75" width="10" height="23.75" as="geometry" />
        </mxCell>
        <mxCell id="mPwbwdcTfQN4pYjI0akt-753" value="" style="shape=cube;whiteSpace=wrap;html=1;boundedLbl=1;backgroundOutline=1;darkOpacity=0.05;darkOpacity2=0.1;size=40;direction=east;flipH=1;fillColor=#FFFFFF;strokeColor=#C2C2C2;fillStyle=solid;" vertex="1" parent="mPwbwdcTfQN4pYjI0akt-707">
          <mxGeometry x="10" y="127.5" width="10" height="23.75" as="geometry" />
        </mxCell>
        <mxCell id="mPwbwdcTfQN4pYjI0akt-754" value="" style="shape=cube;whiteSpace=wrap;html=1;boundedLbl=1;backgroundOutline=1;darkOpacity=0.05;darkOpacity2=0.1;size=40;direction=east;flipH=1;fillColor=#FFFFFF;strokeColor=#C2C2C2;fillStyle=solid;" vertex="1" parent="mPwbwdcTfQN4pYjI0akt-707">
          <mxGeometry x="10" y="141.25" width="10" height="23.75" as="geometry" />
        </mxCell>
        <mxCell id="mPwbwdcTfQN4pYjI0akt-755" value="" style="shape=cube;whiteSpace=wrap;html=1;boundedLbl=1;backgroundOutline=1;darkOpacity=0.05;darkOpacity2=0.1;size=40;direction=east;flipH=1;fillColor=#FFFFFF;strokeColor=#C2C2C2;fillStyle=solid;" vertex="1" parent="mPwbwdcTfQN4pYjI0akt-707">
          <mxGeometry x="10" y="155" width="10" height="23.75" as="geometry" />
        </mxCell>
        <mxCell id="mPwbwdcTfQN4pYjI0akt-756" value="" style="shape=cube;whiteSpace=wrap;html=1;boundedLbl=1;backgroundOutline=1;darkOpacity=0.05;darkOpacity2=0.1;size=40;direction=east;flipH=1;fillColor=#97D077;strokeColor=#808080;fillStyle=solid;" vertex="1" parent="mPwbwdcTfQN4pYjI0akt-707">
          <mxGeometry x="30" y="79.75" width="10" height="23.75" as="geometry" />
        </mxCell>
        <mxCell id="mPwbwdcTfQN4pYjI0akt-757" value="" style="endArrow=none;html=1;rounded=0;exitX=0;exitY=0;exitDx=0;exitDy=0;exitPerimeter=0;entryX=0;entryY=0;entryDx=10;entryDy=10;entryPerimeter=0;strokeColor=#808080;dashed=1;" edge="1" parent="mPwbwdcTfQN4pYjI0akt-707" source="mPwbwdcTfQN4pYjI0akt-722" target="mPwbwdcTfQN4pYjI0akt-756">
          <mxGeometry width="50" height="50" relative="1" as="geometry">
            <mxPoint x="-60" y="133" as="sourcePoint" />
            <mxPoint x="20" y="157" as="targetPoint" />
          </mxGeometry>
        </mxCell>
        <mxCell id="mPwbwdcTfQN4pYjI0akt-758" value="" style="endArrow=none;html=1;rounded=0;exitX=0;exitY=0;exitDx=10;exitDy=10;exitPerimeter=0;entryX=0;entryY=0;entryDx=10;entryDy=10;entryPerimeter=0;strokeColor=#808080;dashed=1;" edge="1" parent="mPwbwdcTfQN4pYjI0akt-707" source="mPwbwdcTfQN4pYjI0akt-720" target="mPwbwdcTfQN4pYjI0akt-740">
          <mxGeometry width="50" height="50" relative="1" as="geometry">
            <mxPoint x="-40" y="153" as="sourcePoint" />
            <mxPoint x="40" y="177" as="targetPoint" />
          </mxGeometry>
        </mxCell>
        <mxCell id="mPwbwdcTfQN4pYjI0akt-759" value="" style="endArrow=none;html=1;rounded=0;exitX=0;exitY=0;exitDx=0;exitDy=13.75;exitPerimeter=0;entryX=0;entryY=0;entryDx=0;entryDy=13.75;entryPerimeter=0;strokeColor=#808080;dashed=1;" edge="1" parent="mPwbwdcTfQN4pYjI0akt-707" source="mPwbwdcTfQN4pYjI0akt-723" target="mPwbwdcTfQN4pYjI0akt-726">
          <mxGeometry width="50" height="50" relative="1" as="geometry">
            <mxPoint x="-30" y="163" as="sourcePoint" />
            <mxPoint x="50" y="187" as="targetPoint" />
          </mxGeometry>
        </mxCell>
        <mxCell id="mPwbwdcTfQN4pYjI0akt-760" value="" style="endArrow=none;html=1;rounded=0;entryX=0;entryY=0;entryDx=0;entryDy=13.75;entryPerimeter=0;exitX=0;exitY=0;exitDx=0;exitDy=13.75;exitPerimeter=0;strokeColor=#808080;dashed=1;" edge="1" parent="1" source="mPwbwdcTfQN4pYjI0akt-786" target="mPwbwdcTfQN4pYjI0akt-723">
          <mxGeometry width="50" height="50" relative="1" as="geometry">
            <mxPoint x="-470" y="-920" as="sourcePoint" />
            <mxPoint x="-560" y="-940" as="targetPoint" />
          </mxGeometry>
        </mxCell>
        <mxCell id="mPwbwdcTfQN4pYjI0akt-761" value="" style="endArrow=none;html=1;rounded=0;entryX=0;entryY=0;entryDx=0;entryDy=13.75;entryPerimeter=0;exitX=0;exitY=0;exitDx=0;exitDy=13.75;exitPerimeter=0;strokeColor=#808080;dashed=1;" edge="1" parent="1" source="mPwbwdcTfQN4pYjI0akt-792" target="mPwbwdcTfQN4pYjI0akt-743">
          <mxGeometry width="50" height="50" relative="1" as="geometry">
            <mxPoint x="-610" y="-860" as="sourcePoint" />
            <mxPoint x="-560" y="-910" as="targetPoint" />
          </mxGeometry>
        </mxCell>
        <mxCell id="mPwbwdcTfQN4pYjI0akt-762" value="" style="endArrow=none;html=1;rounded=0;entryX=0;entryY=0;entryDx=0;entryDy=13.75;entryPerimeter=0;exitX=0;exitY=0;exitDx=0;exitDy=13.75;exitPerimeter=0;strokeColor=#808080;dashed=1;" edge="1" parent="1" source="mPwbwdcTfQN4pYjI0akt-746" target="mPwbwdcTfQN4pYjI0akt-795">
          <mxGeometry width="50" height="50" relative="1" as="geometry">
            <mxPoint x="-610" y="-860" as="sourcePoint" />
            <mxPoint x="-560" y="-910" as="targetPoint" />
          </mxGeometry>
        </mxCell>
        <mxCell id="mPwbwdcTfQN4pYjI0akt-763" value="" style="endArrow=none;html=1;rounded=0;entryX=0;entryY=0;entryDx=0;entryDy=13.75;entryPerimeter=0;exitX=0;exitY=0;exitDx=10;exitDy=10;exitPerimeter=0;strokeColor=#808080;dashed=1;" edge="1" parent="1" source="mPwbwdcTfQN4pYjI0akt-720" target="mPwbwdcTfQN4pYjI0akt-813">
          <mxGeometry width="50" height="50" relative="1" as="geometry">
            <mxPoint x="-610" y="-860" as="sourcePoint" />
            <mxPoint x="-560" y="-910" as="targetPoint" />
          </mxGeometry>
        </mxCell>
        <mxCell id="mPwbwdcTfQN4pYjI0akt-764" value="" style="group" vertex="1" connectable="0" parent="1">
          <mxGeometry x="-480" y="-990" width="80" height="202.75" as="geometry" />
        </mxCell>
        <mxCell id="mPwbwdcTfQN4pYjI0akt-765" value="" style="shape=cube;whiteSpace=wrap;html=1;boundedLbl=1;backgroundOutline=1;darkOpacity=0.05;darkOpacity2=0.1;size=40;direction=east;flipH=1;fillColor=#FFFFFF;strokeColor=#C2C2C2;fillStyle=solid;" vertex="1" parent="mPwbwdcTfQN4pYjI0akt-764">
          <mxGeometry x="70" y="40" width="10" height="23.75" as="geometry" />
        </mxCell>
        <mxCell id="mPwbwdcTfQN4pYjI0akt-766" value="" style="shape=cube;whiteSpace=wrap;html=1;boundedLbl=1;backgroundOutline=1;darkOpacity=0.05;darkOpacity2=0.1;size=40;direction=east;flipH=1;fillColor=#FFFFFF;strokeColor=#C2C2C2;fillStyle=solid;" vertex="1" parent="mPwbwdcTfQN4pYjI0akt-764">
          <mxGeometry x="70" y="27" width="10" height="23.75" as="geometry" />
        </mxCell>
        <mxCell id="mPwbwdcTfQN4pYjI0akt-767" value="" style="shape=cube;whiteSpace=wrap;html=1;boundedLbl=1;backgroundOutline=1;darkOpacity=0.05;darkOpacity2=0.1;size=40;direction=east;flipH=1;fillColor=#FFFFFF;strokeColor=#C2C2C2;fillStyle=solid;" vertex="1" parent="mPwbwdcTfQN4pYjI0akt-764">
          <mxGeometry x="70" y="13.25" width="10" height="23.75" as="geometry" />
        </mxCell>
        <mxCell id="mPwbwdcTfQN4pYjI0akt-768" value="" style="shape=cube;whiteSpace=wrap;html=1;boundedLbl=1;backgroundOutline=1;darkOpacity=0.05;darkOpacity2=0.1;size=40;direction=east;flipH=1;fillColor=#FFFFFF;strokeColor=#C2C2C2;fillStyle=solid;" vertex="1" parent="mPwbwdcTfQN4pYjI0akt-764">
          <mxGeometry x="70" y="54" width="10" height="23.75" as="geometry" />
        </mxCell>
        <mxCell id="mPwbwdcTfQN4pYjI0akt-769" value="" style="shape=cube;whiteSpace=wrap;html=1;boundedLbl=1;backgroundOutline=1;darkOpacity=0.05;darkOpacity2=0.1;size=40;direction=east;flipH=1;fillColor=#FFFFFF;strokeColor=#C2C2C2;fillStyle=solid;" vertex="1" parent="mPwbwdcTfQN4pYjI0akt-764">
          <mxGeometry x="70" y="67.75" width="10" height="23.75" as="geometry" />
        </mxCell>
        <mxCell id="mPwbwdcTfQN4pYjI0akt-770" value="" style="shape=cube;whiteSpace=wrap;html=1;boundedLbl=1;backgroundOutline=1;darkOpacity=0.05;darkOpacity2=0.1;size=40;direction=east;flipH=1;fillColor=#FFFFFF;strokeColor=#C2C2C2;fillStyle=solid;" vertex="1" parent="mPwbwdcTfQN4pYjI0akt-764">
          <mxGeometry x="70" y="81.5" width="10" height="23.75" as="geometry" />
        </mxCell>
        <mxCell id="mPwbwdcTfQN4pYjI0akt-771" value="" style="shape=cube;whiteSpace=wrap;html=1;boundedLbl=1;backgroundOutline=1;darkOpacity=0.05;darkOpacity2=0.1;size=40;direction=east;flipH=1;fillColor=#FFFFFF;strokeColor=#C2C2C2;fillStyle=solid;" vertex="1" parent="mPwbwdcTfQN4pYjI0akt-764">
          <mxGeometry x="70" y="95.25" width="10" height="23.75" as="geometry" />
        </mxCell>
        <mxCell id="mPwbwdcTfQN4pYjI0akt-772" value="" style="shape=cube;whiteSpace=wrap;html=1;boundedLbl=1;backgroundOutline=1;darkOpacity=0.05;darkOpacity2=0.1;size=40;direction=east;flipH=1;fillColor=#FFFFFF;strokeColor=#C2C2C2;fillStyle=solid;" vertex="1" parent="mPwbwdcTfQN4pYjI0akt-764">
          <mxGeometry x="60" y="50.25" width="10" height="23.75" as="geometry" />
        </mxCell>
        <mxCell id="mPwbwdcTfQN4pYjI0akt-773" value="" style="shape=cube;whiteSpace=wrap;html=1;boundedLbl=1;backgroundOutline=1;darkOpacity=0.05;darkOpacity2=0.1;size=40;direction=east;flipH=1;fillColor=#FFFFFF;strokeColor=#C2C2C2;fillStyle=solid;" vertex="1" parent="mPwbwdcTfQN4pYjI0akt-764">
          <mxGeometry x="60" y="37.25" width="10" height="23.75" as="geometry" />
        </mxCell>
        <mxCell id="mPwbwdcTfQN4pYjI0akt-774" value="" style="shape=cube;whiteSpace=wrap;html=1;boundedLbl=1;backgroundOutline=1;darkOpacity=0.05;darkOpacity2=0.1;size=40;direction=east;flipH=1;fillColor=#FFFFFF;strokeColor=#C2C2C2;fillStyle=solid;" vertex="1" parent="mPwbwdcTfQN4pYjI0akt-764">
          <mxGeometry x="60" y="23.5" width="10" height="23.75" as="geometry" />
        </mxCell>
        <mxCell id="mPwbwdcTfQN4pYjI0akt-775" value="" style="shape=cube;whiteSpace=wrap;html=1;boundedLbl=1;backgroundOutline=1;darkOpacity=0.05;darkOpacity2=0.1;size=40;direction=east;flipH=1;fillColor=#FFFFFF;strokeColor=#C2C2C2;fillStyle=solid;" vertex="1" parent="mPwbwdcTfQN4pYjI0akt-764">
          <mxGeometry x="60" y="64.25" width="10" height="23.75" as="geometry" />
        </mxCell>
        <mxCell id="mPwbwdcTfQN4pYjI0akt-776" value="" style="shape=cube;whiteSpace=wrap;html=1;boundedLbl=1;backgroundOutline=1;darkOpacity=0.05;darkOpacity2=0.1;size=40;direction=east;flipH=1;fillColor=#FFFFFF;strokeColor=#C2C2C2;fillStyle=solid;" vertex="1" parent="mPwbwdcTfQN4pYjI0akt-764">
          <mxGeometry x="60" y="78" width="10" height="23.75" as="geometry" />
        </mxCell>
        <mxCell id="mPwbwdcTfQN4pYjI0akt-777" value="" style="shape=cube;whiteSpace=wrap;html=1;boundedLbl=1;backgroundOutline=1;darkOpacity=0.05;darkOpacity2=0.1;size=40;direction=east;flipH=1;fillColor=#FFFFFF;strokeColor=#C2C2C2;fillStyle=solid;" vertex="1" parent="mPwbwdcTfQN4pYjI0akt-764">
          <mxGeometry x="60" y="91.75" width="10" height="23.75" as="geometry" />
        </mxCell>
        <mxCell id="mPwbwdcTfQN4pYjI0akt-778" value="" style="shape=cube;whiteSpace=wrap;html=1;boundedLbl=1;backgroundOutline=1;darkOpacity=0.05;darkOpacity2=0.1;size=40;direction=east;flipH=1;fillColor=#FFFFFF;strokeColor=#C2C2C2;fillStyle=solid;" vertex="1" parent="mPwbwdcTfQN4pYjI0akt-764">
          <mxGeometry x="60" y="105.5" width="10" height="23.75" as="geometry" />
        </mxCell>
        <mxCell id="mPwbwdcTfQN4pYjI0akt-779" value="" style="shape=cube;whiteSpace=wrap;html=1;boundedLbl=1;backgroundOutline=1;darkOpacity=0.05;darkOpacity2=0.1;size=40;direction=east;flipH=1;fillColor=#FFFFFF;strokeColor=#C2C2C2;fillStyle=solid;" vertex="1" parent="mPwbwdcTfQN4pYjI0akt-764">
          <mxGeometry x="50" y="60" width="10" height="23.75" as="geometry" />
        </mxCell>
        <mxCell id="mPwbwdcTfQN4pYjI0akt-780" value="" style="shape=cube;whiteSpace=wrap;html=1;boundedLbl=1;backgroundOutline=1;darkOpacity=0.05;darkOpacity2=0.1;size=40;direction=east;flipH=1;fillColor=#FFFFFF;strokeColor=#C2C2C2;fillStyle=solid;" vertex="1" parent="mPwbwdcTfQN4pYjI0akt-764">
          <mxGeometry x="50" y="47" width="10" height="23.75" as="geometry" />
        </mxCell>
        <mxCell id="mPwbwdcTfQN4pYjI0akt-781" value="" style="shape=cube;whiteSpace=wrap;html=1;boundedLbl=1;backgroundOutline=1;darkOpacity=0.05;darkOpacity2=0.1;size=40;direction=east;flipH=1;fillColor=#FFFFFF;strokeColor=#C2C2C2;fillStyle=solid;" vertex="1" parent="mPwbwdcTfQN4pYjI0akt-764">
          <mxGeometry x="50" y="33.25" width="10" height="23.75" as="geometry" />
        </mxCell>
        <mxCell id="mPwbwdcTfQN4pYjI0akt-782" value="" style="shape=cube;whiteSpace=wrap;html=1;boundedLbl=1;backgroundOutline=1;darkOpacity=0.05;darkOpacity2=0.1;size=40;direction=east;flipH=1;fillColor=#FFFFFF;strokeColor=#C2C2C2;fillStyle=solid;" vertex="1" parent="mPwbwdcTfQN4pYjI0akt-764">
          <mxGeometry x="50" y="74" width="10" height="23.75" as="geometry" />
        </mxCell>
        <mxCell id="mPwbwdcTfQN4pYjI0akt-783" value="" style="shape=cube;whiteSpace=wrap;html=1;boundedLbl=1;backgroundOutline=1;darkOpacity=0.05;darkOpacity2=0.1;size=40;direction=east;flipH=1;fillColor=#FFFFFF;strokeColor=#C2C2C2;fillStyle=solid;" vertex="1" parent="mPwbwdcTfQN4pYjI0akt-764">
          <mxGeometry x="50" y="87.75" width="10" height="23.75" as="geometry" />
        </mxCell>
        <mxCell id="mPwbwdcTfQN4pYjI0akt-784" value="" style="shape=cube;whiteSpace=wrap;html=1;boundedLbl=1;backgroundOutline=1;darkOpacity=0.05;darkOpacity2=0.1;size=40;direction=east;flipH=1;fillColor=#FFFFFF;strokeColor=#C2C2C2;fillStyle=solid;" vertex="1" parent="mPwbwdcTfQN4pYjI0akt-764">
          <mxGeometry x="50" y="101.5" width="10" height="23.75" as="geometry" />
        </mxCell>
        <mxCell id="mPwbwdcTfQN4pYjI0akt-785" value="" style="shape=cube;whiteSpace=wrap;html=1;boundedLbl=1;backgroundOutline=1;darkOpacity=0.05;darkOpacity2=0.1;size=40;direction=east;flipH=1;fillColor=#FFFFFF;strokeColor=#C2C2C2;fillStyle=solid;" vertex="1" parent="mPwbwdcTfQN4pYjI0akt-764">
          <mxGeometry x="50" y="115.25" width="10" height="23.75" as="geometry" />
        </mxCell>
        <mxCell id="mPwbwdcTfQN4pYjI0akt-786" value="" style="shape=cube;whiteSpace=wrap;html=1;boundedLbl=1;backgroundOutline=1;darkOpacity=0.05;darkOpacity2=0.1;size=40;direction=east;flipH=1;fillColor=#FFFFFF;strokeColor=#C2C2C2;fillStyle=solid;" vertex="1" parent="mPwbwdcTfQN4pYjI0akt-764">
          <mxGeometry x="40" y="69.25" width="10" height="23.75" as="geometry" />
        </mxCell>
        <mxCell id="mPwbwdcTfQN4pYjI0akt-787" value="" style="shape=cube;whiteSpace=wrap;html=1;boundedLbl=1;backgroundOutline=1;darkOpacity=0.05;darkOpacity2=0.1;size=40;direction=east;flipH=1;fillColor=#FFFFFF;strokeColor=#C2C2C2;fillStyle=solid;" vertex="1" parent="mPwbwdcTfQN4pYjI0akt-764">
          <mxGeometry x="40" y="56.25" width="10" height="23.75" as="geometry" />
        </mxCell>
        <mxCell id="mPwbwdcTfQN4pYjI0akt-788" value="" style="shape=cube;whiteSpace=wrap;html=1;boundedLbl=1;backgroundOutline=1;darkOpacity=0.05;darkOpacity2=0.1;size=40;direction=east;flipH=1;fillColor=#FFFFFF;strokeColor=#C2C2C2;fillStyle=solid;" vertex="1" parent="mPwbwdcTfQN4pYjI0akt-764">
          <mxGeometry x="40" y="42.5" width="10" height="23.75" as="geometry" />
        </mxCell>
        <mxCell id="mPwbwdcTfQN4pYjI0akt-789" value="" style="shape=cube;whiteSpace=wrap;html=1;boundedLbl=1;backgroundOutline=1;darkOpacity=0.05;darkOpacity2=0.1;size=40;direction=east;flipH=1;fillColor=#FFFFFF;strokeColor=#C2C2C2;fillStyle=solid;" vertex="1" parent="mPwbwdcTfQN4pYjI0akt-764">
          <mxGeometry x="40" y="97" width="10" height="23.75" as="geometry" />
        </mxCell>
        <mxCell id="mPwbwdcTfQN4pYjI0akt-790" value="" style="shape=cube;whiteSpace=wrap;html=1;boundedLbl=1;backgroundOutline=1;darkOpacity=0.05;darkOpacity2=0.1;size=40;direction=east;flipH=1;fillColor=#FFFFFF;strokeColor=#C2C2C2;fillStyle=solid;" vertex="1" parent="mPwbwdcTfQN4pYjI0akt-764">
          <mxGeometry x="40" y="110.75" width="10" height="23.75" as="geometry" />
        </mxCell>
        <mxCell id="mPwbwdcTfQN4pYjI0akt-791" value="" style="shape=cube;whiteSpace=wrap;html=1;boundedLbl=1;backgroundOutline=1;darkOpacity=0.05;darkOpacity2=0.1;size=40;direction=east;flipH=1;fillColor=#FFFFFF;strokeColor=#C2C2C2;fillStyle=solid;" vertex="1" parent="mPwbwdcTfQN4pYjI0akt-764">
          <mxGeometry x="40" y="124.5" width="10" height="23.75" as="geometry" />
        </mxCell>
        <mxCell id="mPwbwdcTfQN4pYjI0akt-792" value="" style="shape=cube;whiteSpace=wrap;html=1;boundedLbl=1;backgroundOutline=1;darkOpacity=0.05;darkOpacity2=0.1;size=40;direction=east;flipH=1;fillColor=#FFFFFF;strokeColor=#C2C2C2;fillStyle=solid;" vertex="1" parent="mPwbwdcTfQN4pYjI0akt-764">
          <mxGeometry x="30" y="79.75" width="10" height="23.75" as="geometry" />
        </mxCell>
        <mxCell id="mPwbwdcTfQN4pYjI0akt-793" value="" style="shape=cube;whiteSpace=wrap;html=1;boundedLbl=1;backgroundOutline=1;darkOpacity=0.05;darkOpacity2=0.1;size=40;direction=east;flipH=1;fillColor=#FFFFFF;strokeColor=#C2C2C2;fillStyle=solid;" vertex="1" parent="mPwbwdcTfQN4pYjI0akt-764">
          <mxGeometry x="30" y="66.75" width="10" height="23.75" as="geometry" />
        </mxCell>
        <mxCell id="mPwbwdcTfQN4pYjI0akt-794" value="" style="shape=cube;whiteSpace=wrap;html=1;boundedLbl=1;backgroundOutline=1;darkOpacity=0.05;darkOpacity2=0.1;size=40;direction=east;flipH=1;fillColor=#FFFFFF;strokeColor=#C2C2C2;fillStyle=solid;" vertex="1" parent="mPwbwdcTfQN4pYjI0akt-764">
          <mxGeometry x="30" y="53" width="10" height="23.75" as="geometry" />
        </mxCell>
        <mxCell id="mPwbwdcTfQN4pYjI0akt-795" value="" style="shape=cube;whiteSpace=wrap;html=1;boundedLbl=1;backgroundOutline=1;darkOpacity=0.05;darkOpacity2=0.1;size=40;direction=east;flipH=1;fillColor=#FFFFFF;strokeColor=#C2C2C2;fillStyle=solid;" vertex="1" parent="mPwbwdcTfQN4pYjI0akt-764">
          <mxGeometry x="30" y="93.75" width="10" height="23.75" as="geometry" />
        </mxCell>
        <mxCell id="mPwbwdcTfQN4pYjI0akt-796" value="" style="shape=cube;whiteSpace=wrap;html=1;boundedLbl=1;backgroundOutline=1;darkOpacity=0.05;darkOpacity2=0.1;size=40;direction=east;flipH=1;fillColor=#FFFFFF;strokeColor=#C2C2C2;fillStyle=solid;" vertex="1" parent="mPwbwdcTfQN4pYjI0akt-764">
          <mxGeometry x="30" y="107.5" width="10" height="23.75" as="geometry" />
        </mxCell>
        <mxCell id="mPwbwdcTfQN4pYjI0akt-797" value="" style="shape=cube;whiteSpace=wrap;html=1;boundedLbl=1;backgroundOutline=1;darkOpacity=0.05;darkOpacity2=0.1;size=40;direction=east;flipH=1;fillColor=#FFFFFF;strokeColor=#C2C2C2;fillStyle=solid;" vertex="1" parent="mPwbwdcTfQN4pYjI0akt-764">
          <mxGeometry x="30" y="121.25" width="10" height="23.75" as="geometry" />
        </mxCell>
        <mxCell id="mPwbwdcTfQN4pYjI0akt-798" value="" style="shape=cube;whiteSpace=wrap;html=1;boundedLbl=1;backgroundOutline=1;darkOpacity=0.05;darkOpacity2=0.1;size=40;direction=east;flipH=1;fillColor=#FFFFFF;strokeColor=#C2C2C2;fillStyle=solid;" vertex="1" parent="mPwbwdcTfQN4pYjI0akt-764">
          <mxGeometry x="30" y="135" width="10" height="23.75" as="geometry" />
        </mxCell>
        <mxCell id="mPwbwdcTfQN4pYjI0akt-799" value="" style="shape=cube;whiteSpace=wrap;html=1;boundedLbl=1;backgroundOutline=1;darkOpacity=0.05;darkOpacity2=0.1;size=40;direction=east;flipH=1;fillColor=#FFFFFF;strokeColor=#C2C2C2;fillStyle=solid;" vertex="1" parent="mPwbwdcTfQN4pYjI0akt-764">
          <mxGeometry x="20" y="90" width="10" height="23.75" as="geometry" />
        </mxCell>
        <mxCell id="mPwbwdcTfQN4pYjI0akt-800" value="" style="shape=cube;whiteSpace=wrap;html=1;boundedLbl=1;backgroundOutline=1;darkOpacity=0.05;darkOpacity2=0.1;size=40;direction=east;flipH=1;fillColor=#FFFFFF;strokeColor=#C2C2C2;fillStyle=solid;" vertex="1" parent="mPwbwdcTfQN4pYjI0akt-764">
          <mxGeometry x="20" y="77" width="10" height="23.75" as="geometry" />
        </mxCell>
        <mxCell id="mPwbwdcTfQN4pYjI0akt-801" value="" style="shape=cube;whiteSpace=wrap;html=1;boundedLbl=1;backgroundOutline=1;darkOpacity=0.05;darkOpacity2=0.1;size=40;direction=east;flipH=1;fillColor=#FFFFFF;strokeColor=#C2C2C2;fillStyle=solid;" vertex="1" parent="mPwbwdcTfQN4pYjI0akt-764">
          <mxGeometry x="20" y="63.25" width="10" height="23.75" as="geometry" />
        </mxCell>
        <mxCell id="mPwbwdcTfQN4pYjI0akt-802" value="" style="shape=cube;whiteSpace=wrap;html=1;boundedLbl=1;backgroundOutline=1;darkOpacity=0.05;darkOpacity2=0.1;size=40;direction=east;flipH=1;fillColor=#FFFFFF;strokeColor=#C2C2C2;fillStyle=solid;" vertex="1" parent="mPwbwdcTfQN4pYjI0akt-764">
          <mxGeometry x="20" y="104" width="10" height="23.75" as="geometry" />
        </mxCell>
        <mxCell id="mPwbwdcTfQN4pYjI0akt-803" value="" style="shape=cube;whiteSpace=wrap;html=1;boundedLbl=1;backgroundOutline=1;darkOpacity=0.05;darkOpacity2=0.1;size=40;direction=east;flipH=1;fillColor=#FFFFFF;strokeColor=#C2C2C2;fillStyle=solid;" vertex="1" parent="mPwbwdcTfQN4pYjI0akt-764">
          <mxGeometry x="20" y="117.75" width="10" height="23.75" as="geometry" />
        </mxCell>
        <mxCell id="mPwbwdcTfQN4pYjI0akt-804" value="" style="shape=cube;whiteSpace=wrap;html=1;boundedLbl=1;backgroundOutline=1;darkOpacity=0.05;darkOpacity2=0.1;size=40;direction=east;flipH=1;fillColor=#FFFFFF;strokeColor=#C2C2C2;fillStyle=solid;" vertex="1" parent="mPwbwdcTfQN4pYjI0akt-764">
          <mxGeometry x="20" y="131.5" width="10" height="23.75" as="geometry" />
        </mxCell>
        <mxCell id="mPwbwdcTfQN4pYjI0akt-805" value="" style="shape=cube;whiteSpace=wrap;html=1;boundedLbl=1;backgroundOutline=1;darkOpacity=0.05;darkOpacity2=0.1;size=40;direction=east;flipH=1;fillColor=#FFFFFF;strokeColor=#C2C2C2;fillStyle=solid;" vertex="1" parent="mPwbwdcTfQN4pYjI0akt-764">
          <mxGeometry x="20" y="145.25" width="10" height="23.75" as="geometry" />
        </mxCell>
        <mxCell id="mPwbwdcTfQN4pYjI0akt-806" value="" style="shape=cube;whiteSpace=wrap;html=1;boundedLbl=1;backgroundOutline=1;darkOpacity=0.05;darkOpacity2=0.1;size=40;direction=east;flipH=1;fillColor=#FFFFFF;strokeColor=#C2C2C2;fillStyle=solid;" vertex="1" parent="mPwbwdcTfQN4pYjI0akt-764">
          <mxGeometry x="10" y="99.75" width="10" height="23.75" as="geometry" />
        </mxCell>
        <mxCell id="mPwbwdcTfQN4pYjI0akt-807" value="" style="shape=cube;whiteSpace=wrap;html=1;boundedLbl=1;backgroundOutline=1;darkOpacity=0.05;darkOpacity2=0.1;size=40;direction=east;flipH=1;fillColor=#FFFFFF;strokeColor=#C2C2C2;fillStyle=solid;" vertex="1" parent="mPwbwdcTfQN4pYjI0akt-764">
          <mxGeometry x="10" y="86.75" width="10" height="23.75" as="geometry" />
        </mxCell>
        <mxCell id="mPwbwdcTfQN4pYjI0akt-808" value="" style="shape=cube;whiteSpace=wrap;html=1;boundedLbl=1;backgroundOutline=1;darkOpacity=0.05;darkOpacity2=0.1;size=40;direction=east;flipH=1;fillColor=#FFFFFF;strokeColor=#C2C2C2;fillStyle=solid;" vertex="1" parent="mPwbwdcTfQN4pYjI0akt-764">
          <mxGeometry x="10" y="73" width="10" height="23.75" as="geometry" />
        </mxCell>
        <mxCell id="mPwbwdcTfQN4pYjI0akt-809" value="" style="shape=cube;whiteSpace=wrap;html=1;boundedLbl=1;backgroundOutline=1;darkOpacity=0.05;darkOpacity2=0.1;size=40;direction=east;flipH=1;fillColor=#FFFFFF;strokeColor=#C2C2C2;fillStyle=solid;" vertex="1" parent="mPwbwdcTfQN4pYjI0akt-764">
          <mxGeometry x="10" y="113.75" width="10" height="23.75" as="geometry" />
        </mxCell>
        <mxCell id="mPwbwdcTfQN4pYjI0akt-810" value="" style="shape=cube;whiteSpace=wrap;html=1;boundedLbl=1;backgroundOutline=1;darkOpacity=0.05;darkOpacity2=0.1;size=40;direction=east;flipH=1;fillColor=#FFFFFF;strokeColor=#C2C2C2;fillStyle=solid;" vertex="1" parent="mPwbwdcTfQN4pYjI0akt-764">
          <mxGeometry x="10" y="127.5" width="10" height="23.75" as="geometry" />
        </mxCell>
        <mxCell id="mPwbwdcTfQN4pYjI0akt-811" value="" style="shape=cube;whiteSpace=wrap;html=1;boundedLbl=1;backgroundOutline=1;darkOpacity=0.05;darkOpacity2=0.1;size=40;direction=east;flipH=1;fillColor=#FFFFFF;strokeColor=#C2C2C2;fillStyle=solid;" vertex="1" parent="mPwbwdcTfQN4pYjI0akt-764">
          <mxGeometry x="10" y="141.25" width="10" height="23.75" as="geometry" />
        </mxCell>
        <mxCell id="mPwbwdcTfQN4pYjI0akt-812" value="" style="shape=cube;whiteSpace=wrap;html=1;boundedLbl=1;backgroundOutline=1;darkOpacity=0.05;darkOpacity2=0.1;size=40;direction=east;flipH=1;fillColor=#FFFFFF;strokeColor=#C2C2C2;fillStyle=solid;" vertex="1" parent="mPwbwdcTfQN4pYjI0akt-764">
          <mxGeometry x="10" y="155" width="10" height="23.75" as="geometry" />
        </mxCell>
        <mxCell id="mPwbwdcTfQN4pYjI0akt-813" value="" style="shape=cube;whiteSpace=wrap;html=1;boundedLbl=1;backgroundOutline=1;darkOpacity=0.05;darkOpacity2=0.1;size=40;direction=east;flipH=1;fillColor=#67AB9F;strokeColor=#808080;fillStyle=solid;" vertex="1" parent="mPwbwdcTfQN4pYjI0akt-764">
          <mxGeometry x="40" y="83.25" width="10" height="23.75" as="geometry" />
        </mxCell>
        <mxCell id="mPwbwdcTfQN4pYjI0akt-814" value="" style="endArrow=none;html=1;rounded=0;exitX=0;exitY=0;exitDx=0;exitDy=13.75;exitPerimeter=0;strokeColor=#808080;dashed=1;" edge="1" parent="1" source="mPwbwdcTfQN4pYjI0akt-743">
          <mxGeometry width="50" height="50" relative="1" as="geometry">
            <mxPoint x="-620" y="-847" as="sourcePoint" />
            <mxPoint x="-540" y="-860" as="targetPoint" />
          </mxGeometry>
        </mxCell>
      </root>
    </mxGraphModel>
  </diagram>
</mxfile>
